<?xml version="1.0" encoding="UTF-8"?>
<!DOCTYPE svg PUBLIC "-//W3C//DTD SVG 1.1//EN" "http://www.w3.org/Graphics/SVG/1.1/DTD/svg11.dtd">
<svg xmlns="http://www.w3.org/2000/svg" version="1.1" width="544px" height="545px" style="shape-rendering:geometricPrecision; text-rendering:geometricPrecision; image-rendering:optimizeQuality; fill-rule:evenodd; clip-rule:evenodd" xmlns:xlink="http://www.w3.org/1999/xlink">
<g><path style="opacity:1" fill="#fefefe" d="M -0.5,-0.5 C 180.833,-0.5 362.167,-0.5 543.5,-0.5C 543.5,181.167 543.5,362.833 543.5,544.5C 362.167,544.5 180.833,544.5 -0.5,544.5C -0.5,362.833 -0.5,181.167 -0.5,-0.5 Z"/></g>
<g><path style="opacity:1" fill="#121611" d="M 238.5,8.5 C 259.167,8.5 279.833,8.5 300.5,8.5C 300.5,18.1667 300.5,27.8333 300.5,37.5C 322.171,39.4595 343.004,44.7929 363,53.5C 364.261,53.2409 365.261,52.5742 366,51.5C 370.083,44.3324 374.416,37.3324 379,30.5C 396.749,40.6227 414.249,51.1227 431.5,62C 426.833,69.6667 422.167,77.3333 417.5,85C 435.021,98.222 450.188,113.722 463,131.5C 470.667,127.167 478.333,122.833 486,118.5C 496.293,136.252 506.46,154.085 516.5,172C 508.245,175.949 500.579,180.615 493.5,186C 501.224,204.122 506.224,222.955 508.5,242.5C 517.167,242.5 525.833,242.5 534.5,242.5C 534.5,263.167 534.5,283.833 534.5,304.5C 525.833,304.5 517.167,304.5 508.5,304.5C 507.211,323.744 502.878,342.244 495.5,360C 502.68,364.424 510.013,368.59 517.5,372.5C 507.921,390.66 498.087,408.66 488,426.5C 481.3,422.316 474.3,418.649 467,415.5C 453.727,433.274 438.56,449.274 421.5,463.5C 420.417,464.365 420.251,465.365 421,466.5C 424.708,472.751 428.541,478.917 432.5,485C 414.917,495.374 397.417,505.874 380,516.5C 375.667,509.833 371.333,503.167 367,496.5C 345.963,506.608 323.797,512.608 300.5,514.5C 300.5,522.5 300.5,530.5 300.5,538.5C 279.833,538.5 259.167,538.5 238.5,538.5C 239.114,530.391 238.447,522.558 236.5,515C 214.6,512.441 193.6,506.608 173.5,497.5C 169.002,503.826 164.502,510.159 160,516.5C 142.344,506.599 125.178,496.099 108.5,485C 111.868,479.1 115.368,473.267 119,467.5C 119.667,466.5 119.667,465.5 119,464.5C 101.916,450.585 86.7498,434.918 73.5,417.5C 66.8333,421.167 60.1667,424.833 53.5,428.5C 42.8761,411.426 32.8761,393.926 23.5,376C 30.5071,371.497 37.5071,366.997 44.5,362.5C 37.1604,343.799 32.4937,324.466 30.5,304.5C 21.8333,304.5 13.1667,304.5 4.5,304.5C 4.5,283.833 4.5,263.167 4.5,242.5C 13.1667,242.5 21.8333,242.5 30.5,242.5C 32.9513,224.073 37.618,206.239 44.5,189C 44.2409,187.739 43.5742,186.739 42.5,186C 35.0819,182.97 28.4153,178.97 22.5,174C 31.5409,156.079 41.2075,138.579 51.5,121.5C 59.3241,125.245 66.9908,129.245 74.5,133.5C 88.1217,115.878 103.455,99.8779 120.5,85.5C 116.532,78.3694 112.366,71.3694 108,64.5C 107.251,63.365 107.417,62.365 108.5,61.5C 124.833,51.6667 141.167,41.8333 157.5,32C 158.784,31.3162 159.951,31.4829 161,32.5C 165.249,40.0004 169.749,47.3337 174.5,54.5C 194.488,45.0858 215.488,39.2525 237.5,37C 238.485,27.5834 238.818,18.0834 238.5,8.5 Z"/></g>
<g><path style="opacity:1" fill="#1ea424" d="M 240.5,10.5 C 259.833,10.5 279.167,10.5 298.5,10.5C 298.5,19.8333 298.5,29.1667 298.5,38.5C 321.435,41.0671 343.435,47.0671 364.5,56.5C 369.56,49.5854 374.06,42.2521 378,34.5C 378.561,33.9781 379.228,33.6448 380,33.5C 396.287,42.9518 412.454,52.6184 428.5,62.5C 424.333,69.5 420.167,76.5 416,83.5C 415.333,84.5 415.333,85.5 416,86.5C 433.54,99.7063 448.707,115.206 461.5,133C 469.276,130.445 476.609,126.779 483.5,122C 484.635,121.251 485.635,121.417 486.5,122.5C 495.627,138.586 504.627,154.753 513.5,171C 506.663,175.253 499.663,179.253 492.5,183C 491.941,183.725 491.608,184.558 491.5,185.5C 499.573,204.387 504.573,224.053 506.5,244.5C 515.167,244.5 523.833,244.5 532.5,244.5C 532.5,263.833 532.5,283.167 532.5,302.5C 523.73,301.882 515.23,302.548 507,304.5C 505.487,323.902 500.987,342.568 493.5,360.5C 500.296,365.07 507.296,369.403 514.5,373.5C 505.579,389.675 496.912,406.008 488.5,422.5C 487.635,423.583 486.635,423.749 485.5,423C 479.167,419.5 472.833,416 466.5,412.5C 453.271,432.231 437.104,449.231 418,463.5C 421.246,470.475 425.08,477.309 429.5,484C 413.567,494.217 397.4,504.05 381,513.5C 380.228,513.355 379.561,513.022 379,512.5C 375.725,506.075 371.891,500.075 367.5,494.5C 345.453,504.293 322.453,510.627 298.5,513.5C 298.5,521.167 298.5,528.833 298.5,536.5C 279.167,536.5 259.833,536.5 240.5,536.5C 240.5,528.833 240.5,521.167 240.5,513.5C 216.546,511.125 193.713,504.792 172,494.5C 168.084,501.335 163.917,508.002 159.5,514.5C 143.167,504.667 126.833,494.833 110.5,485C 114.5,478.333 118.5,471.667 122.5,465C 104.758,450.592 89.0909,434.259 75.5,416C 74.5,415.333 73.5,415.333 72.5,416C 66.2521,419.373 60.0855,422.873 54,426.5C 45,410.5 36,394.5 27,378.5C 26.2888,376.633 26.7888,375.133 28.5,374C 35.2564,371.302 41.2564,367.635 46.5,363C 38.9598,343.46 34.2931,323.293 32.5,302.5C 23.8333,302.5 15.1667,302.5 6.5,302.5C 6.5,283.167 6.5,263.833 6.5,244.5C 15.1667,244.5 23.8333,244.5 32.5,244.5C 34.4364,224.691 39.4364,205.691 47.5,187.5C 39.8688,183.015 32.2022,178.515 24.5,174C 33.7937,157.247 42.9604,140.413 52,123.5C 59.3675,128.018 67.0341,132.018 75,135.5C 89.4969,117.337 105.664,100.837 123.5,86C 118.833,78.3333 114.167,70.6667 109.5,63C 125.833,53.1667 142.167,43.3333 158.5,33.5C 163.664,41.1595 168.831,48.8261 174,56.5C 195.169,46.8327 217.336,40.8327 240.5,38.5C 240.5,29.1667 240.5,19.8333 240.5,10.5 Z"/></g>
<g><path style="opacity:1" fill="#edf5ed" d="M 264.5,487.5 C 270.529,487.692 273.862,490.859 274.5,497C 274.361,502.817 271.528,506.317 266,507.5C 261.106,506.066 258.939,502.733 259.5,497.5C 259.079,493.009 260.745,489.675 264.5,487.5 Z"/></g>
<g><path style="opacity:1" fill="#eef6ee" d="M 295.5,487.5 C 297.717,493.585 296.05,498.418 290.5,502C 293.579,503.09 295.912,502.257 297.5,499.5C 298.466,501.396 298.799,503.396 298.5,505.5C 294.119,505.372 289.785,505.705 285.5,506.5C 284.475,506.103 284.308,505.437 285,504.5C 289.228,501.446 292.061,497.446 293.5,492.5C 292.082,488.085 289.582,487.418 286,490.5C 285.798,492.256 285.298,493.922 284.5,495.5C 282.618,491.585 283.618,488.752 287.5,487C 290.221,486.398 292.887,486.565 295.5,487.5 Z"/></g>
<g><path style="opacity:1" fill="#e8f2e8" d="M 335.5,480.5 C 337.711,480.967 339.711,481.967 341.5,483.5C 341.023,484.478 340.357,485.311 339.5,486C 340.956,486.423 341.456,487.256 341,488.5C 340.333,489.833 339.667,489.833 339,488.5C 337.45,492.364 335.95,492.364 334.5,488.5C 333.105,489.815 332.105,489.481 331.5,487.5C 334.028,486.483 334.028,485.316 331.5,484C 332.536,482.383 333.703,482.216 335,483.5C 335.483,482.552 335.649,481.552 335.5,480.5 Z"/></g>
<g><path style="opacity:1" fill="#e8f3e9" d="M 207.5,482.5 C 209.476,484.328 211.476,485.495 213.5,486C 213.095,486.945 212.428,487.612 211.5,488C 212.357,488.689 213.023,489.522 213.5,490.5C 211.711,492.033 209.711,493.033 207.5,493.5C 207.881,491.058 207.214,490.391 205.5,491.5C 202.972,490.483 202.972,489.316 205.5,488C 204.044,487.577 203.544,486.744 204,485.5C 205,484.167 206,484.167 207,485.5C 207.483,484.552 207.649,483.552 207.5,482.5 Z"/></g>
<g><path style="opacity:1" fill="#edf5ed" d="M 312.5,481.5 C 313.497,481.47 314.164,481.97 314.5,483C 315.942,487.823 317.275,492.656 318.5,497.5C 319.675,497.281 320.675,497.614 321.5,498.5C 318.635,500.471 315.635,501.137 312.5,500.5C 314.012,499.751 315.012,498.584 315.5,497C 314.189,493.569 313.189,490.069 312.5,486.5C 311.022,486.762 309.689,486.429 308.5,485.5C 309.549,483.784 310.882,482.451 312.5,481.5 Z"/></g>
<g><path style="opacity:1" fill="#f5fbf5" d="M 118.5,421.5 C 119.478,421.811 120.145,422.478 120.5,423.5C 115.848,427.651 111.348,431.985 107,436.5C 106.5,436 106,435.5 105.5,435C 110.037,430.631 114.37,426.131 118.5,421.5 Z"/></g>
<g><path style="opacity:1" fill="#e8f6e8" d="M 100.5,415.5 C 102.814,417.477 105.147,419.477 107.5,421.5C 109.5,419.833 111.5,418.167 113.5,416.5C 114.308,416.808 114.975,417.308 115.5,418C 110.684,421.981 106.018,426.148 101.5,430.5C 97.9795,427.813 94.9795,424.647 92.5,421C 93,420.5 93.5,420 94,419.5C 96.3333,422.167 98.6667,424.833 101,427.5C 102.563,426.275 103.73,424.775 104.5,423C 103.224,420.719 101.557,418.719 99.5,417C 100.056,416.617 100.389,416.117 100.5,415.5 Z"/></g>
<g><path style="opacity:1" fill="#edf8ed" d="M 426.5,413.5 C 427.552,413.351 428.552,413.517 429.5,414C 433.5,418 437.5,422 441.5,426C 439.182,430.161 435.848,432.994 431.5,434.5C 427.007,433.823 425.34,431.156 426.5,426.5C 423.059,426.699 419.726,426.199 416.5,425C 417.43,424.009 418.596,423.509 420,423.5C 424.236,425.407 427.903,424.74 431,421.5C 429.831,418.785 428.331,416.118 426.5,413.5 Z"/></g>
<g><path style="opacity:1" fill="#37ac37" d="M 432.5,422.5 C 435.272,422.595 437.272,423.929 438.5,426.5C 436.535,430.345 433.535,432.179 429.5,432C 428.941,431.275 428.608,430.442 428.5,429.5C 429.851,427.156 431.184,424.822 432.5,422.5 Z"/></g>
<g><path style="opacity:1" fill="#eef8ee" d="M 439.5,399.5 C 448.873,399.7 453.04,404.366 452,413.5C 449.103,418.155 444.937,419.655 439.5,418C 431.547,411.836 431.547,405.669 439.5,399.5 Z"/></g>
<g><path style="opacity:1" fill="#26a72a" d="M 438.5,402.5 C 442.516,401.9 446.016,402.9 449,405.5C 451.984,413.05 449.484,416.55 441.5,416C 435.041,412.531 434.041,408.031 438.5,402.5 Z"/></g>
<g><path style="opacity:1" fill="#e9f6ea" d="M 91.5,396.5 C 99.164,395.666 102.664,399 102,406.5C 98.472,410.675 94.3053,414.008 89.5,416.5C 88.479,415.998 88.3123,415.332 89,414.5C 92.3333,411.833 95.6667,409.167 99,406.5C 100.267,402.269 98.7673,399.602 94.5,398.5C 90.4468,400.379 86.7801,402.879 83.5,406C 82.365,406.749 81.365,406.583 80.5,405.5C 83.8953,402.098 87.562,399.098 91.5,396.5 Z"/></g>
<g><path style="opacity:1" fill="#eaf6ea" d="M 445.5,388.5 C 450.562,390.867 455.562,393.534 460.5,396.5C 461.845,395.653 462.845,394.487 463.5,393C 464.332,392.312 464.998,392.479 465.5,393.5C 463.226,397.772 460.559,401.772 457.5,405.5C 457.167,405 456.833,404.5 456.5,404C 458.029,402.418 458.529,400.585 458,398.5C 454.167,396 450.333,393.5 446.5,391C 445.748,390.329 445.414,389.496 445.5,388.5 Z"/></g>
<g><path style="opacity:1" fill="#eaf7ea" d="M 81.5,377.5 C 88.6737,379.512 91.507,384.179 90,391.5C 87.0812,397.025 82.5812,398.858 76.5,397C 70.6719,393.556 69.5052,389.056 73,383.5C 73.6924,384.025 74.1924,384.692 74.5,385.5C 72.3688,392.745 75.0355,395.911 82.5,395C 89.583,391.175 90.2496,386.508 84.5,381C 80.075,381.089 79.4083,382.922 82.5,386.5C 82.1667,386.833 81.8333,387.167 81.5,387.5C 79.3674,385.909 77.7007,383.909 76.5,381.5C 78.4192,380.388 80.0858,379.054 81.5,377.5 Z"/></g>
<g><path style="opacity:1" fill="#e4f4e5" d="M 457.5,368.5 C 461.801,372.972 465.968,377.639 470,382.5C 470.684,383.784 470.517,384.951 469.5,386C 462.774,385.937 456.108,385.104 449.5,383.5C 451.315,381.306 453.482,380.972 456,382.5C 457.934,379.966 459.268,377.299 460,374.5C 457.272,373.033 456.439,371.033 457.5,368.5 Z"/></g>
<g><path style="opacity:1" fill="#30ab33" d="M 461.5,377.5 C 463.63,379.127 465.63,380.96 467.5,383C 465.167,383.667 462.833,383.667 460.5,383C 459.668,381.091 460.001,379.258 461.5,377.5 Z"/></g>
<g><path style="opacity:1" fill="#ebf7eb" d="M 75.5,359.5 C 76.2891,359.783 76.9558,360.283 77.5,361C 76.3601,362.973 75.0267,364.807 73.5,366.5C 74.373,368.413 75.373,370.247 76.5,372C 78.9005,372.186 81.2338,372.686 83.5,373.5C 83.3333,373.833 83.1667,374.167 83,374.5C 76.5885,375.779 70.0885,376.279 63.5,376C 62.5494,375.282 62.3828,374.449 63,373.5C 67.0035,368.665 71.1702,363.998 75.5,359.5 Z"/></g>
<g><path style="opacity:1" fill="#32ac35" d="M 71.5,367.5 C 72.7255,368.937 73.7255,370.604 74.5,372.5C 71.5051,373.521 68.5051,374.021 65.5,374C 67.7059,371.963 69.7059,369.797 71.5,367.5 Z"/></g>
<g><path style="opacity:1" fill="#ebf7eb" d="M 60.5,343.5 C 70.9333,343.08 74.7667,347.747 72,357.5C 65.095,364.651 59.095,363.984 54,355.5C 53.3388,349.989 55.5055,345.989 60.5,343.5 Z"/></g>
<g><path style="opacity:1" fill="#eef8ee" d="M 463.5,354.5 C 469.915,356.195 475.915,358.862 481.5,362.5C 480.087,365.661 478.42,368.661 476.5,371.5C 472.851,373.251 470.185,372.251 468.5,368.5C 461.53,370.36 459.03,367.694 461,360.5C 462.122,358.593 462.955,356.593 463.5,354.5 Z"/></g>
<g><path style="opacity:1" fill="#30aa32" d="M 472.5,361.5 C 479.409,361.61 480.409,364.11 475.5,369C 473.888,369.72 472.388,369.554 471,368.5C 470.865,366.078 471.365,363.745 472.5,361.5 Z"/></g>
<g><path style="opacity:1" fill="#32ab34" d="M 464.5,357.5 C 471.029,358.242 472.195,361.242 468,366.5C 465.173,367.999 463.34,367.165 462.5,364C 463.033,361.774 463.7,359.607 464.5,357.5 Z"/></g>
<g><path style="opacity:1" fill="#24a729" d="M 60.5,346.5 C 64.6034,345.769 68.1034,346.769 71,349.5C 72.0373,355.971 69.2039,359.305 62.5,359.5C 56.9055,358.422 55.0722,355.088 57,349.5C 58.1451,348.364 59.3117,347.364 60.5,346.5 Z"/></g>
<g><path style="opacity:1" fill="#e7f5e7" d="M 470.5,338.5 C 476.829,338.943 482.829,340.609 488.5,343.5C 487.667,343.833 486.833,344.167 486,344.5C 482.191,343.397 478.358,342.397 474.5,341.5C 470.011,341.833 468.511,344.167 470,348.5C 473.727,351.357 477.893,353.357 482.5,354.5C 483.583,355.365 483.749,356.365 483,357.5C 477.625,355.932 472.625,353.599 468,350.5C 466.065,346.001 466.898,342.001 470.5,338.5 Z"/></g>
<g><path style="opacity:1" fill="#ebf7eb" d="M 57.5,320.5 C 63.2043,320.374 66.2043,323.207 66.5,329C 66.385,333.125 64.5516,334.958 61,334.5C 62.2948,332.928 63.1281,330.928 63.5,328.5C 63.7941,325.741 62.6275,324.075 60,323.5C 58.6739,323.755 57.6739,324.422 57,325.5C 56.6667,328.5 56.3333,331.5 56,334.5C 52.195,337.539 49.195,336.872 47,332.5C 45.6376,328.541 46.6376,325.541 50,323.5C 49.204,326.03 48.8707,328.696 49,331.5C 49.6122,334.032 51.1122,334.865 53.5,334C 54.2931,330.589 54.7931,327.089 55,323.5C 56.045,322.627 56.8783,321.627 57.5,320.5 Z"/></g>
<g><path style="opacity:1" fill="#ecf7ec" d="M 476.5,319.5 C 479.85,319.335 483.183,319.502 486.5,320C 492.368,323.04 493.868,327.54 491,333.5C 489.266,335.451 487.099,336.451 484.5,336.5C 484.5,335.5 484.5,334.5 484.5,333.5C 489.49,333.22 491.324,330.553 490,325.5C 486.51,321.953 482.343,320.786 477.5,322C 473.263,326.061 473.597,329.728 478.5,333C 476.863,334.951 475.363,334.784 474,332.5C 471.606,327.527 472.44,323.194 476.5,319.5 Z"/></g>
<g><path style="opacity:1" fill="#ecf7ec" d="M 42.5,305.5 C 44.3079,306.918 44.9746,308.918 44.5,311.5C 48.9978,310.889 53.4978,310.223 58,309.5C 59.1667,309.833 60.3333,310.167 61.5,310.5C 56.3682,312.526 51.0349,313.526 45.5,313.5C 45.6741,315.861 46.0074,318.194 46.5,320.5C 45.5,320.5 44.5,320.5 43.5,320.5C 43.3867,315.482 43.0534,310.482 42.5,305.5 Z"/></g>
<g><path style="opacity:1" fill="#e7f5e7" d="M 477.5,299.5 C 483.796,300.494 490.13,301.16 496.5,301.5C 496.762,302.978 496.429,304.311 495.5,305.5C 490.713,307.393 486.047,309.56 481.5,312C 485.955,313.615 490.622,314.449 495.5,314.5C 495.5,315.5 495.5,316.5 495.5,317.5C 488.887,316.173 482.22,315.173 475.5,314.5C 475.281,313.325 475.614,312.325 476.5,311.5C 481.754,309.473 486.754,306.973 491.5,304C 487.181,303.24 482.848,302.573 478.5,302C 477.748,301.329 477.414,300.496 477.5,299.5 Z"/></g>
<g><path style="opacity:1" fill="#e6f5e6" d="M 478.5,292.5 C 484.845,292.653 491.178,292.986 497.5,293.5C 497.5,294.5 497.5,295.5 497.5,296.5C 492.167,296.067 486.834,295.567 481.5,295C 479.881,294.764 478.881,293.931 478.5,292.5 Z"/></g>
<g><path style="opacity:1" fill="#e8f6e8" d="M 57.5,287.5 C 58.4972,287.47 59.1639,287.97 59.5,289C 58.303,290.52 56.803,291.687 55,292.5C 54.3333,295.167 54.3333,297.833 55,300.5C 57.1761,300.988 59.0094,301.988 60.5,303.5C 54.0934,303.322 47.7601,301.988 41.5,299.5C 40.1667,298.5 40.1667,297.5 41.5,296.5C 46.8957,293.473 52.2291,290.473 57.5,287.5 Z"/></g>
<g><path style="opacity:1" fill="#3cae3c" d="M 50.5,293.5 C 52.3079,294.918 52.9746,296.918 52.5,299.5C 49.4318,299.453 46.4318,298.953 43.5,298C 46.1867,296.951 48.52,295.451 50.5,293.5 Z"/></g>
<g><path style="opacity:1" fill="#b3e0b5" d="M 42.5,279.5 C 48.1667,279.5 53.8333,279.5 59.5,279.5C 59.5,280.5 59.5,281.5 59.5,282.5C 57.5,282.5 55.5,282.5 53.5,282.5C 54.9516,281.698 56.6183,281.198 58.5,281C 52.9842,280.827 47.6509,280.327 42.5,279.5 Z"/></g>
<g><path style="opacity:1" fill="#a7dcaa" d="M 42.5,279.5 C 41.6981,278.048 41.1981,276.382 41,274.5C 40.5008,279.155 40.3342,283.821 40.5,288.5C 39.5128,283.695 39.1795,278.695 39.5,273.5C 40.5,273.5 41.5,273.5 42.5,273.5C 42.5,275.5 42.5,277.5 42.5,279.5 Z"/></g>
<g><path style="opacity:1" fill="#f5fbf5" d="M 42.5,279.5 C 47.6509,280.327 52.9842,280.827 58.5,281C 56.6183,281.198 54.9516,281.698 53.5,282.5C 49.8333,282.5 46.1667,282.5 42.5,282.5C 42.8076,284.924 42.4742,287.257 41.5,289.5C 40.8933,289.376 40.56,289.043 40.5,288.5C 40.3342,283.821 40.5008,279.155 41,274.5C 41.1981,276.382 41.6981,278.048 42.5,279.5 Z"/></g>
<g><path style="opacity:1" fill="#eef8ee" d="M 482.5,268.5 C 483.675,268.281 484.675,268.614 485.5,269.5C 481.689,272.197 480.689,275.697 482.5,280C 483.833,280.667 485.167,280.667 486.5,280C 487.406,277.553 488.239,275.053 489,272.5C 491.655,268.946 494.655,268.613 498,271.5C 498.817,274.964 498.483,278.298 497,281.5C 495.817,282.731 494.651,282.731 493.5,281.5C 496.242,279.067 497.075,276.067 496,272.5C 494.667,271.167 493.333,271.167 492,272.5C 490.601,275.363 489.601,278.363 489,281.5C 482.983,284.837 479.817,283.003 479.5,276C 479.11,272.876 480.11,270.376 482.5,268.5 Z"/></g>
<g><path style="opacity:1" fill="#ecf7ec" d="M 40.5,256.5 C 42.4228,260.029 43.0894,264.029 42.5,268.5C 44.5,268.5 46.5,268.5 48.5,268.5C 49.1667,253.833 49.8333,253.833 50.5,268.5C 52.8333,268.5 55.1667,268.5 57.5,268.5C 57.1774,264.774 57.5108,261.107 58.5,257.5C 59.4933,262.12 59.8266,266.786 59.5,271.5C 52.8259,271.287 46.1593,270.954 39.5,270.5C 39.8333,265.833 40.1667,261.167 40.5,256.5 Z"/></g>
<g><path style="opacity:1" fill="#e8f6e8" d="M 481.5,250.5 C 482.675,250.281 483.675,250.614 484.5,251.5C 481.108,253.619 479.941,256.619 481,260.5C 482.444,262.155 484.278,262.822 486.5,262.5C 486.652,258.207 487.986,254.374 490.5,251C 497.083,250.599 499.583,253.765 498,260.5C 496.649,262.019 495.149,263.352 493.5,264.5C 492.373,262.731 492.873,261.397 495,260.5C 495.667,258.167 495.667,255.833 495,253.5C 493.951,252.483 492.784,252.316 491.5,253C 490.083,255.983 489.25,259.15 489,262.5C 484.675,266.752 481.342,266.085 479,260.5C 477.861,256.579 478.695,253.246 481.5,250.5 Z"/></g>
<g><path style="opacity:1" fill="#e2f3e2" d="M 487.5,231.5 C 489.924,231.192 492.257,231.526 494.5,232.5C 496.161,236.442 496.494,240.442 495.5,244.5C 493.817,241.398 493.151,238.064 493.5,234.5C 491.5,234.5 489.5,234.5 487.5,234.5C 488.079,238.238 488.079,241.904 487.5,245.5C 485.975,242.722 484.975,239.722 484.5,236.5C 482.604,235.534 480.604,235.201 478.5,235.5C 478.687,239.913 479.354,244.246 480.5,248.5C 479.5,248.5 478.5,248.5 477.5,248.5C 476.942,243.484 476.275,238.484 475.5,233.5C 479.733,233.461 483.733,232.795 487.5,231.5 Z"/></g>
<g><path style="opacity:1" fill="#f1f9f1" d="M 44.5,228.5 C 49.6249,228.531 54.6249,229.364 59.5,231C 63.3087,235.227 63.3087,239.56 59.5,244C 53.8253,244.366 48.1586,244.2 42.5,243.5C 42.5,242.5 42.5,241.5 42.5,240.5C 46.6825,241.003 50.8492,241.669 55,242.5C 60.0526,241.562 61.5526,238.728 59.5,234C 55.35,232.196 51.0167,231.029 46.5,230.5C 45.2867,230.253 44.62,229.586 44.5,228.5 Z"/></g>
<g><path style="opacity:1" fill="#e6f5e6" d="M 487.5,211.5 C 488.5,211.5 489.5,211.5 490.5,211.5C 490.649,212.552 490.483,213.552 490,214.5C 486.131,218.034 482.631,221.867 479.5,226C 484.17,225.507 488.837,224.674 493.5,223.5C 493.5,224.5 493.5,225.5 493.5,226.5C 487.193,227.828 480.86,229.162 474.5,230.5C 476.798,224.788 480.465,219.955 485.5,216C 480.991,215.708 476.658,216.542 472.5,218.5C 471.614,217.675 471.281,216.675 471.5,215.5C 477.02,214.453 482.354,213.12 487.5,211.5 Z"/></g>
<g><path style="opacity:1" fill="#eaf7ea" d="M 49.5,208.5 C 55.518,209.602 61.3513,211.268 67,213.5C 67.6172,214.449 67.4506,215.282 66.5,216C 61.3753,217.541 56.3753,219.374 51.5,221.5C 55.297,223.283 59.297,224.45 63.5,225C 64.9023,226.342 64.5689,227.176 62.5,227.5C 56.8492,226.004 51.1825,224.67 45.5,223.5C 45.281,222.325 45.6143,221.325 46.5,220.5C 51.6932,218.882 56.6932,216.882 61.5,214.5C 57.8919,213.181 54.2252,212.014 50.5,211C 49.7476,210.329 49.4142,209.496 49.5,208.5 Z"/></g>
<g><path style="opacity:1" fill="#eef8ee" d="M 484.5,203.5 C 486.942,203.354 487.609,204.187 486.5,206C 480.973,207.842 475.473,209.676 470,211.5C 469.517,210.552 469.351,209.552 469.5,208.5C 474.784,207.405 479.784,205.739 484.5,203.5 Z"/></g>
<g><path style="opacity:1" fill="#eef8ee" d="M 51.5,201.5 C 57.5,203.167 63.5,204.833 69.5,206.5C 69.719,207.675 69.3857,208.675 68.5,209.5C 64.2041,207.901 59.8708,206.401 55.5,205C 53.4556,204.502 52.1223,203.335 51.5,201.5 Z"/></g>
<g><path style="opacity:1" fill="#e3f4e3" d="M 59.5,181.5 C 65.1082,185.439 70.1082,190.106 74.5,195.5C 74.2907,196.086 73.9574,196.586 73.5,197C 66.8417,197.5 60.175,197.666 53.5,197.5C 53.5,196.5 53.5,195.5 53.5,194.5C 59.5274,194.67 65.5274,194.837 71.5,195C 67.3566,190.767 63.0233,186.767 58.5,183C 59.056,182.617 59.3893,182.117 59.5,181.5 Z"/></g>
<g><path style="opacity:1" fill="#ebf7eb" d="M 475.5,186.5 C 480.825,186.491 483.491,189.158 483.5,194.5C 483.402,196.619 482.569,198.286 481,199.5C 479,198.5 479,197.5 481,196.5C 482.328,191.662 480.494,189.329 475.5,189.5C 475.451,192.374 475.784,195.208 476.5,198C 475.501,203.004 472.501,204.67 467.5,203C 464.682,199.662 463.849,195.829 465,191.5C 466.185,189.441 467.352,189.274 468.5,191C 465.57,194.676 465.903,198.009 469.5,201C 470.5,201.667 471.5,201.667 472.5,201C 473.3,196.92 473.8,192.753 474,188.5C 474.717,187.956 475.217,187.289 475.5,186.5 Z"/></g>
<g><path style="opacity:1" fill="#e8f6e9" d="M 66.5,166.5 C 67.4972,166.47 68.1639,166.97 68.5,168C 66.8453,171.113 65.6786,174.28 65,177.5C 66.3374,178.765 67.8374,179.265 69.5,179C 71.0406,176.084 72.7073,173.251 74.5,170.5C 74.8333,171 75.1667,171.5 75.5,172C 74.3032,174.894 72.9699,177.727 71.5,180.5C 73.0009,181.752 74.6675,182.752 76.5,183.5C 78.9021,180.374 81.0688,177.04 83,173.5C 83.5,174 84,174.5 84.5,175C 82.2058,179.088 80.0391,183.255 78,187.5C 72.2266,184.7 66.7266,181.534 61.5,178C 63.3164,174.204 64.9831,170.37 66.5,166.5 Z"/></g>
<g><path style="opacity:1" fill="#e6f5e6" d="M 469.5,167.5 C 471.942,167.354 472.609,168.187 471.5,170C 467.423,171.787 463.59,173.954 460,176.5C 459.294,178.971 459.627,181.305 461,183.5C 462.388,184.554 463.888,184.72 465.5,184C 469.288,182.022 473.121,180.189 477,178.5C 477.5,179 478,179.5 478.5,180C 473.195,184.331 467.195,186.331 460.5,186C 457.456,183.088 456.289,179.588 457,175.5C 460.977,172.435 465.144,169.768 469.5,167.5 Z"/></g>
<g><path style="opacity:1" fill="#e5f4e5" d="M 460.5,150.5 C 461.496,150.414 462.329,150.748 463,151.5C 464.742,154.4 466.242,157.4 467.5,160.5C 466.531,163.987 464.198,165.32 460.5,164.5C 459.877,169.288 457.21,171.121 452.5,170C 449.974,166.974 447.64,163.807 445.5,160.5C 450.738,157.391 455.738,154.058 460.5,150.5 Z"/></g>
<g><path style="opacity:1" fill="#2aa92e" d="M 452.5,158.5 C 456.431,160.01 458.097,163.01 457.5,167.5C 452.377,167.894 449.877,165.561 450,160.5C 450.995,159.934 451.828,159.267 452.5,158.5 Z"/></g>
<g><path style="opacity:1" fill="#e7f5e7" d="M 76.5,150.5 C 82.0079,149.678 84.6746,152.011 84.5,157.5C 87.8499,157.335 91.1832,157.502 94.5,158C 94.0426,158.414 93.7093,158.914 93.5,159.5C 89.6229,160.197 85.7896,160.864 82,161.5C 81.5,162.5 81,163.5 80.5,164.5C 81.9448,166.063 83.6115,167.396 85.5,168.5C 86.8333,169.5 86.8333,170.5 85.5,171.5C 79.9956,168.249 74.6622,164.749 69.5,161C 71.7195,157.385 74.0528,153.885 76.5,150.5 Z"/></g>
<g><path style="opacity:1" fill="#2eaa30" d="M 460.5,153.5 C 463.313,155.47 464.48,158.137 464,161.5C 463.275,162.059 462.442,162.392 461.5,162.5C 456.07,159.501 455.737,156.501 460.5,153.5 Z"/></g>
<g><path style="opacity:1" fill="#32ab34" d="M 76.5,153.5 C 78.1992,153.34 79.8659,153.506 81.5,154C 82.3073,157.905 80.9739,161.072 77.5,163.5C 75.8333,162.333 74.1667,161.167 72.5,160C 74.2318,158.028 75.5652,155.861 76.5,153.5 Z"/></g>
<g><path style="opacity:1" fill="#e7f5e8" d="M 88.5,134.5 C 90.4286,134.231 92.0953,134.731 93.5,136C 91.4465,137.08 89.2798,137.914 87,138.5C 85.872,140.345 85.372,142.345 85.5,144.5C 89.2865,144.607 92.2865,143.107 94.5,140C 101,138.5 103.5,141 102,147.5C 99.6137,152.807 96.1137,154.14 91.5,151.5C 96.0088,151.26 99.0088,149.093 100.5,145C 100.241,143.739 99.5742,142.739 98.5,142C 95.8633,142.493 93.53,143.827 91.5,146C 86.9768,148.66 83.9768,147.493 82.5,142.5C 83.5477,139.051 85.5477,136.384 88.5,134.5 Z"/></g>
<g><path style="opacity:1" fill="#e7f5e7" d="M 93.5,126.5 C 98.4691,129.667 103.136,133.334 107.5,137.5C 108.833,138.5 108.833,139.5 107.5,140.5C 103.356,137.524 99.3562,134.357 95.5,131C 93.9632,129.89 93.2965,128.39 93.5,126.5 Z"/></g>
<g><path style="opacity:1" fill="#e2f3e3" d="M 440.5,122.5 C 441.88,122.962 442.547,123.962 442.5,125.5C 441.414,128.42 440.748,131.42 440.5,134.5C 443.219,134.603 445.885,134.269 448.5,133.5C 450,133.453 451,134.119 451.5,135.5C 446.841,136.37 442.175,137.203 437.5,138C 436.047,140.705 434.047,141.539 431.5,140.5C 432.859,138.308 434.692,136.641 437,135.5C 438.275,131.178 439.442,126.844 440.5,122.5 Z"/></g>
<g><path style="opacity:1" fill="#e6f5e6" d="M 106.5,112.5 C 107.376,112.369 108.043,112.702 108.5,113.5C 107.855,114.646 107.022,115.646 106,116.5C 105.333,117.5 105.333,118.5 106,119.5C 109.632,122.13 112.965,125.13 116,128.5C 116.749,129.635 116.583,130.635 115.5,131.5C 111.5,127.833 107.5,124.167 103.5,120.5C 101.851,121.648 100.351,122.981 99,124.5C 98.5,124 98,123.5 97.5,123C 100.336,119.333 103.336,115.833 106.5,112.5 Z"/></g>
<g><path style="opacity:1" fill="#edf8ee" d="M 422.5,111.5 C 429.875,110.016 434.541,112.849 436.5,120C 436.22,121.395 435.553,122.562 434.5,123.5C 433.025,113.008 428.192,111.008 420,117.5C 417.749,121.666 418.583,125.166 422.5,128C 428.933,128.966 429.933,127.133 425.5,122.5C 428.079,122.324 430.079,123.657 431.5,126.5C 426.001,133.271 421.168,132.604 417,124.5C 415.831,118.853 417.665,114.519 422.5,111.5 Z"/></g>
<g><path style="opacity:1" fill="#e4f4e4" d="M 120.5,99.5 C 121.117,99.6107 121.617,99.944 122,100.5C 121.432,107.601 123.598,113.601 128.5,118.5C 128,118.833 127.5,119.167 127,119.5C 125.18,118.396 123.68,116.896 122.5,115C 117.833,113.667 113.167,112.333 108.5,111C 112.118,109.339 115.785,109.505 119.5,111.5C 120.139,107.431 120.472,103.431 120.5,99.5 Z"/></g>
<g><path style="opacity:1" fill="#edf8ed" d="M 407.5,96.5 C 416.817,95.9836 420.65,100.317 419,109.5C 416.081,115.025 411.581,116.858 405.5,115C 398.458,108.07 399.125,101.904 407.5,96.5 Z"/></g>
<g><path style="opacity:1" fill="#2aa82d" d="M 408.5,98.5 C 416.045,98.8625 418.545,102.529 416,109.5C 410.414,115.347 405.914,114.68 402.5,107.5C 403.74,103.939 405.74,100.939 408.5,98.5 Z"/></g>
<g><path style="opacity:1" fill="#e9f6e9" d="M 134.5,88.5 C 140.616,92.1096 146.616,95.943 152.5,100C 151.975,100.692 151.308,101.192 150.5,101.5C 148.513,99.4986 146.18,98.6652 143.5,99C 142.016,100.574 140.349,101.907 138.5,103C 139.769,105.139 139.769,107.305 138.5,109.5C 135.434,102.692 134.101,95.6922 134.5,88.5 Z"/></g>
<g><path style="opacity:1" fill="#32ab34" d="M 135.5,92.5 C 138.116,93.4798 140.449,94.9798 142.5,97C 141.271,98.5292 139.771,99.6959 138,100.5C 137.059,97.846 136.226,95.1794 135.5,92.5 Z"/></g>
<g><path style="opacity:1" fill="#e8f6e9" d="M 395.5,84.5 C 396.675,84.281 397.675,84.6143 398.5,85.5C 395.122,89.7587 392.122,94.2587 389.5,99C 391.615,101.229 393.948,103.229 396.5,105C 396,105.5 395.5,106 395,106.5C 391.922,104.045 388.756,101.711 385.5,99.5C 389.102,94.6148 392.435,89.6148 395.5,84.5 Z"/></g>
<g><path style="opacity:1" fill="#ecf7ec" d="M 152.5,76.5 C 154.857,76.3367 157.19,76.5034 159.5,77C 159.957,77.414 160.291,77.914 160.5,78.5C 157.525,78.0661 154.525,78.5661 151.5,80C 148.226,85.369 149.226,89.7023 154.5,93C 158.308,93.6192 161.474,92.4525 164,89.5C 163.911,85.075 162.078,84.4083 158.5,87.5C 157.692,87.1924 157.025,86.6924 156.5,86C 161.144,80.9058 164.81,81.4058 167.5,87.5C 162.791,96.3515 156.624,97.6848 149,91.5C 144.99,85.2077 146.157,80.2077 152.5,76.5 Z"/></g>
<g><path style="opacity:1" fill="#eff8ef" d="M 376.5,75.5 C 388.761,75.016 392.261,80.3494 387,91.5C 380.508,96.2748 375.175,95.2748 371,88.5C 370.333,86.5 370.333,84.5 371,82.5C 372.666,80.0043 374.5,77.671 376.5,75.5 Z"/></g>
<g><path style="opacity:1" fill="#29a82c" d="M 377.5,77.5 C 386.137,76.7898 388.97,80.4565 386,88.5C 382.306,93.3416 378.306,93.6749 374,89.5C 372.745,84.7378 373.912,80.7378 377.5,77.5 Z"/></g>
<g><path style="opacity:1" fill="#0a0d03" d="M 256.5,74.5 C 340.33,72.9831 403.497,107.983 446,179.5C 477.435,243.273 477.101,306.939 445,370.5C 399.061,445.632 331.894,479.465 243.5,472C 205.547,467.361 171.88,453.028 142.5,429C 79.3034,371.736 57.8034,301.569 78,218.5C 97.5726,157.592 136.739,114.426 195.5,89C 215.317,81.3737 235.65,76.5403 256.5,74.5 Z"/></g>
<g><path style="opacity:1" fill="#515503" d="M 276.5,448.5 C 277.803,452.382 278.47,456.382 278.5,460.5C 279.417,463.417 280.084,466.417 280.5,469.5C 282.5,469.5 284.5,469.5 286.5,469.5C 286.5,466.167 286.5,462.833 286.5,459.5C 287.479,462.625 287.813,465.958 287.5,469.5C 284.375,470.479 281.042,470.813 277.5,470.5C 277.309,463.524 276.309,456.691 274.5,450C 274.667,448.5 274.833,447 275,445.5C 275.232,446.737 275.732,447.737 276.5,448.5 Z"/></g>
<g><path style="opacity:1" fill="#7c7500" d="M 296.5,440.5 C 298.13,442.026 298.963,444.026 299,446.5C 300.085,447.293 301.252,447.96 302.5,448.5C 304.211,452.141 306.378,455.474 309,458.5C 309.311,460.556 309.811,462.556 310.5,464.5C 310.957,465.298 311.624,465.631 312.5,465.5C 310.095,466.768 307.428,467.435 304.5,467.5C 302.264,461.313 300.43,454.98 299,448.5C 296.835,446.347 296.002,443.681 296.5,440.5 Z"/></g>
<g><path style="opacity:1" fill="#8d8705" d="M 275.5,408.5 C 274.972,409.721 274.305,410.887 273.5,412C 274.009,416.704 275.009,421.204 276.5,425.5C 276.663,427.857 276.497,430.19 276,432.5C 274.956,431.377 274.29,430.044 274,428.5C 272.955,435.166 274.122,440.666 277.5,445C 277.011,446.138 276.678,447.305 276.5,448.5C 275.732,447.737 275.232,446.737 275,445.5C 274.833,447 274.667,448.5 274.5,450C 276.309,456.691 277.309,463.524 277.5,470.5C 276.167,470.5 274.833,470.5 273.5,470.5C 271.49,468.977 271.156,467.144 272.5,465C 270.953,462.227 269.953,459.227 269.5,456C 270.658,454.991 271.325,453.658 271.5,452C 271.146,448.727 270.479,445.561 269.5,442.5C 268.791,441.596 267.791,441.263 266.5,441.5C 266.337,439.143 266.503,436.81 267,434.5C 267.333,434.833 267.667,435.167 268,435.5C 269,431.5 270,431.5 271,435.5C 271.796,432.961 271.629,430.628 270.5,428.5C 269.903,424.168 269.737,419.835 270,415.5C 270.662,419.321 271.829,422.988 273.5,426.5C 274.233,422.303 273.566,418.303 271.5,414.5C 271.88,409.966 272.213,405.299 272.5,400.5C 273.086,400.709 273.586,401.043 274,401.5C 274.186,404.036 274.686,406.369 275.5,408.5 Z"/></g>
<g><path style="opacity:1" fill="#516101" d="M 266.5,441.5 C 267.791,441.263 268.791,441.596 269.5,442.5C 267.848,451.621 266.848,460.954 266.5,470.5C 265.167,470.5 263.833,470.5 262.5,470.5C 264.401,463.403 265.735,456.237 266.5,449C 265.986,446.585 264.986,445.251 263.5,445C 264.544,443.826 265.544,442.659 266.5,441.5 Z"/></g>
<g><path style="opacity:1" fill="#a29b03" d="M 270.5,428.5 C 271.629,430.628 271.796,432.961 271,435.5C 270,431.5 269,431.5 268,435.5C 267.667,435.167 267.333,434.833 267,434.5C 266.503,436.81 266.337,439.143 266.5,441.5C 265.544,442.659 264.544,443.826 263.5,445C 264.986,445.251 265.986,446.585 266.5,449C 265.735,456.237 264.401,463.403 262.5,470.5C 261.167,470.5 259.833,470.5 258.5,470.5C 257.048,469.698 255.382,469.198 253.5,469C 255.284,461.434 256.118,453.601 256,445.5C 256.333,445.167 256.667,444.833 257,444.5C 257.138,450.581 257.804,456.581 259,462.5C 259.863,459.041 261.03,455.707 262.5,452.5C 262.533,453.989 263.033,455.322 264,456.5C 262.897,447.198 262.397,437.865 262.5,428.5C 264.39,428.297 265.89,428.963 267,430.5C 267.5,430 268,429.5 268.5,429C 267.483,427.951 267.316,426.784 268,425.5C 268.667,426.833 269.333,428.167 270,429.5C 270.399,429.272 270.565,428.938 270.5,428.5 Z"/></g>
<g><path style="opacity:1" fill="#283201" d="M 293.5,469.5 C 291.5,469.5 289.5,469.5 287.5,469.5C 287.813,465.958 287.479,462.625 286.5,459.5C 286.5,457.167 286.5,454.833 286.5,452.5C 288.199,452.66 289.866,452.494 291.5,452C 292.67,449.815 293.836,447.649 295,445.5C 294.999,453.514 294.499,461.514 293.5,469.5 Z"/></g>
<g><path style="opacity:1" fill="#2d3402" d="M 303.5,467.5 C 301.052,468.473 298.385,468.806 295.5,468.5C 295.375,463.667 296.208,459 298,454.5C 299.621,459.021 301.454,463.355 303.5,467.5 Z"/></g>
<g><path style="opacity:1" fill="#475201" d="M 313.5,453.5 C 318.864,457.343 324.864,459.843 331.5,461C 326.04,462.241 320.707,463.741 315.5,465.5C 314.925,461.477 314.259,457.477 313.5,453.5 Z"/></g>
<g><path style="opacity:1" fill="#485201" d="M 294.5,432.5 C 295.371,435.003 296.037,437.67 296.5,440.5C 296.002,443.681 296.835,446.347 299,448.5C 300.43,454.98 302.264,461.313 304.5,467.5C 304.167,467.5 303.833,467.5 303.5,467.5C 301.454,463.355 299.621,459.021 298,454.5C 296.208,459 295.375,463.667 295.5,468.5C 294.833,468.833 294.167,469.167 293.5,469.5C 294.499,461.514 294.999,453.514 295,445.5C 293.836,447.649 292.67,449.815 291.5,452C 289.866,452.494 288.199,452.66 286.5,452.5C 286.845,442.908 288.345,433.575 291,424.5C 291.705,427.476 292.871,430.142 294.5,432.5 Z"/></g>
<g><path style="opacity:1" fill="#6b7d01" d="M 293.5,406.5 C 293.911,409.553 294.577,412.553 295.5,415.5C 293.182,421.035 292.849,426.702 294.5,432.5C 292.871,430.142 291.705,427.476 291,424.5C 288.345,433.575 286.845,442.908 286.5,452.5C 286.5,454.833 286.5,457.167 286.5,459.5C 286.5,462.833 286.5,466.167 286.5,469.5C 284.5,469.5 282.5,469.5 280.5,469.5C 280.084,466.417 279.417,463.417 278.5,460.5C 279.644,456.648 279.644,452.648 278.5,448.5C 279.558,449.6 280.392,450.934 281,452.5C 283.239,447.305 284.405,441.805 284.5,436C 284.746,433.328 284.079,431.828 282.5,431.5C 283.421,429.87 284.255,428.203 285,426.5C 285.29,428.044 285.956,429.377 287,430.5C 288.119,419.532 288.785,408.532 289,397.5C 290,398.167 291,398.833 292,399.5C 292.186,402.036 292.686,404.369 293.5,406.5 Z"/></g>
<g><path style="opacity:1" fill="#8d6900" d="M 251.5,455.5 C 250.504,455.586 249.671,455.252 249,454.5C 248.833,453.167 248.667,451.833 248.5,450.5C 248.361,448.117 249.028,446.117 250.5,444.5C 252.563,443.289 253.563,444.123 253.5,447C 253.136,449.921 252.469,452.754 251.5,455.5 Z"/></g>
<g><path style="opacity:1" fill="#3d4901" d="M 269.5,442.5 C 270.479,445.561 271.146,448.727 271.5,452C 271.325,453.658 270.658,454.991 269.5,456C 269.953,459.227 270.953,462.227 272.5,465C 271.156,467.144 271.49,468.977 273.5,470.5C 271.167,470.5 268.833,470.5 266.5,470.5C 266.848,460.954 267.848,451.621 269.5,442.5 Z"/></g>
<g><path style="opacity:1" fill="#506001" d="M 239.5,406.5 C 240.172,415.913 241.172,425.247 242.5,434.5C 242.638,439.636 243.471,444.636 245,449.5C 245.333,445.5 245.667,441.5 246,437.5C 246.419,438.672 247.085,439.672 248,440.5C 248.367,434.796 249.034,429.13 250,423.5C 251,422.833 252,422.167 253,421.5C 253.167,424.5 253.333,427.5 253.5,430.5C 253.439,435.463 252.439,440.13 250.5,444.5C 249.028,446.117 248.361,448.117 248.5,450.5C 248.667,451.833 248.833,453.167 249,454.5C 249.671,455.252 250.504,455.586 251.5,455.5C 252.117,455.389 252.617,455.056 253,454.5C 253.629,457.311 254.129,460.144 254.5,463C 253.909,465.239 253.242,467.406 252.5,469.5C 237.767,468.734 223.434,465.901 209.5,461C 215.392,458.805 220.892,455.971 226,452.5C 231.142,437.248 235.642,421.915 239.5,406.5 Z"/></g>
<g><path style="opacity:1" fill="#5d6b01" d="M 247.5,412.5 C 249.448,413.131 251.281,414.131 253,415.5C 255.699,420.256 258.866,424.589 262.5,428.5C 262.397,437.865 262.897,447.198 264,456.5C 263.033,455.322 262.533,453.989 262.5,452.5C 261.03,455.707 259.863,459.041 259,462.5C 257.804,456.581 257.138,450.581 257,444.5C 256.667,444.833 256.333,445.167 256,445.5C 256.118,453.601 255.284,461.434 253.5,469C 255.382,469.198 257.048,469.698 258.5,470.5C 256.265,470.795 254.265,470.461 252.5,469.5C 253.242,467.406 253.909,465.239 254.5,463C 254.129,460.144 253.629,457.311 253,454.5C 252.617,455.056 252.117,455.389 251.5,455.5C 252.469,452.754 253.136,449.921 253.5,447C 253.563,444.123 252.563,443.289 250.5,444.5C 252.439,440.13 253.439,435.463 253.5,430.5C 253.333,427.5 253.167,424.5 253,421.5C 252,422.167 251,422.833 250,423.5C 249.034,429.13 248.367,434.796 248,440.5C 247.085,439.672 246.419,438.672 246,437.5C 245.667,441.5 245.333,445.5 245,449.5C 243.471,444.636 242.638,439.636 242.5,434.5C 243.117,434.611 243.617,434.944 244,435.5C 244.333,427.5 244.667,419.5 245,411.5C 245.671,412.252 246.504,412.586 247.5,412.5 Z"/></g>
<g><path style="opacity:1" fill="#a39c00" d="M 293.5,381.5 C 298.208,404.665 304.042,427.665 311,450.5C 312.045,451.373 312.878,452.373 313.5,453.5C 314.259,457.477 314.925,461.477 315.5,465.5C 314.5,465.5 313.5,465.5 312.5,465.5C 311.624,465.631 310.957,465.298 310.5,464.5C 309.811,462.556 309.311,460.556 309,458.5C 306.378,455.474 304.211,452.141 302.5,448.5C 301.252,447.96 300.085,447.293 299,446.5C 298.963,444.026 298.13,442.026 296.5,440.5C 296.037,437.67 295.371,435.003 294.5,432.5C 292.849,426.702 293.182,421.035 295.5,415.5C 294.577,412.553 293.911,409.553 293.5,406.5C 293.5,400.5 293.5,394.5 293.5,388.5C 293.5,386.167 293.5,383.833 293.5,381.5 Z"/></g>
<g><path style="opacity:1" fill="#7d8b01" d="M 293.5,388.5 C 293.5,394.5 293.5,400.5 293.5,406.5C 292.686,404.369 292.186,402.036 292,399.5C 291,398.833 290,398.167 289,397.5C 288.785,408.532 288.119,419.532 287,430.5C 285.956,429.377 285.29,428.044 285,426.5C 284.255,428.203 283.421,429.87 282.5,431.5C 284.079,431.828 284.746,433.328 284.5,436C 284.405,441.805 283.239,447.305 281,452.5C 280.392,450.934 279.558,449.6 278.5,448.5C 278.579,446.334 279.246,444.334 280.5,442.5C 280.296,432.201 280.129,421.868 280,411.5C 279.088,407.205 278.421,402.872 278,398.5C 276.693,407.448 276.193,416.448 276.5,425.5C 275.009,421.204 274.009,416.704 273.5,412C 274.305,410.887 274.972,409.721 275.5,408.5C 275.5,401.5 275.5,394.5 275.5,387.5C 275.5,385.167 275.5,382.833 275.5,380.5C 275.351,379.448 275.517,378.448 276,377.5C 276.667,376.167 277.333,376.167 278,377.5C 278.807,382.048 280.14,386.382 282,390.5C 284.738,400.281 286.072,410.281 286,420.5C 287.144,415.671 287.644,410.671 287.5,405.5C 287.352,394.382 286.519,383.382 285,372.5C 288.143,376.569 290.143,381.235 291,386.5C 291.708,387.381 292.542,388.047 293.5,388.5 Z"/></g>
<g><path style="opacity:1" fill="#c1b506" d="M 262.5,380.5 C 264.233,383.753 265.899,387.253 267.5,391C 268.332,391.688 268.998,391.521 269.5,390.5C 266.848,388.408 266.014,385.742 267,382.5C 267.667,383.833 268.333,385.167 269,386.5C 269.249,385.376 269.749,384.376 270.5,383.5C 272.41,388.336 272.91,393.336 272,398.5C 271.667,397.833 271.333,397.167 271,396.5C 270.342,398.8 269.842,401.133 269.5,403.5C 270.33,407.149 270.996,410.815 271.5,414.5C 273.566,418.303 274.233,422.303 273.5,426.5C 271.829,422.988 270.662,419.321 270,415.5C 269.737,419.835 269.903,424.168 270.5,428.5C 270.565,428.938 270.399,429.272 270,429.5C 269.333,428.167 268.667,426.833 268,425.5C 267.316,426.784 267.483,427.951 268.5,429C 268,429.5 267.5,430 267,430.5C 265.89,428.963 264.39,428.297 262.5,428.5C 258.866,424.589 255.699,420.256 253,415.5C 251.281,414.131 249.448,413.131 247.5,412.5C 247.804,411.85 248.137,411.183 248.5,410.5C 247.167,408.833 245.833,407.167 244.5,405.5C 245.79,404.592 247.123,404.759 248.5,406C 252.723,411.224 256.556,416.724 260,422.5C 261.268,422.384 262.602,422.051 264,421.5C 264.333,422.5 264.667,423.5 265,424.5C 266.395,421.715 267.228,418.715 267.5,415.5C 265.958,410.623 265.291,405.623 265.5,400.5C 264.606,394.134 263.606,387.801 262.5,381.5C 262.5,381.167 262.5,380.833 262.5,380.5 Z"/></g>
<g><path style="opacity:1" fill="#9ca703" d="M 278.5,448.5 C 279.644,452.648 279.644,456.648 278.5,460.5C 278.47,456.382 277.803,452.382 276.5,448.5C 276.678,447.305 277.011,446.138 277.5,445C 274.122,440.666 272.955,435.166 274,428.5C 274.29,430.044 274.956,431.377 276,432.5C 276.497,430.19 276.663,427.857 276.5,425.5C 276.193,416.448 276.693,407.448 278,398.5C 278.421,402.872 279.088,407.205 280,411.5C 280.129,421.868 280.296,432.201 280.5,442.5C 279.246,444.334 278.579,446.334 278.5,448.5 Z"/></g>
<g><path style="opacity:1" fill="#697b01" d="M 243.5,388.5 C 245.04,390.838 245.706,393.505 245.5,396.5C 246.93,396.421 248.264,396.754 249.5,397.5C 251.071,394.891 252.571,392.224 254,389.5C 254.915,390.328 255.581,391.328 256,392.5C 256.143,396.619 256.81,400.619 258,404.5C 259.209,401.293 260.209,397.959 261,394.5C 262.363,396.684 263.863,398.684 265.5,400.5C 265.291,405.623 265.958,410.623 267.5,415.5C 267.228,418.715 266.395,421.715 265,424.5C 264.667,423.5 264.333,422.5 264,421.5C 262.602,422.051 261.268,422.384 260,422.5C 256.556,416.724 252.723,411.224 248.5,406C 247.123,404.759 245.79,404.592 244.5,405.5C 245.833,407.167 247.167,408.833 248.5,410.5C 248.137,411.183 247.804,411.85 247.5,412.5C 246.504,412.586 245.671,412.252 245,411.5C 244.667,419.5 244.333,427.5 244,435.5C 243.617,434.944 243.117,434.611 242.5,434.5C 241.172,425.247 240.172,415.913 239.5,406.5C 240.114,400.762 241.114,395.095 242.5,389.5C 243.167,389.5 243.5,389.167 243.5,388.5 Z"/></g>
<g><path style="opacity:1" fill="#a5a003" d="M 269.5,373.5 C 269.215,375.288 269.548,376.955 270.5,378.5C 272.457,381.468 274.123,384.468 275.5,387.5C 275.5,394.5 275.5,401.5 275.5,408.5C 274.686,406.369 274.186,404.036 274,401.5C 273.586,401.043 273.086,400.709 272.5,400.5C 272.213,405.299 271.88,409.966 271.5,414.5C 270.996,410.815 270.33,407.149 269.5,403.5C 269.842,401.133 270.342,398.8 271,396.5C 271.333,397.167 271.667,397.833 272,398.5C 272.91,393.336 272.41,388.336 270.5,383.5C 269.749,384.376 269.249,385.376 269,386.5C 268.333,385.167 267.667,383.833 267,382.5C 266.014,385.742 266.848,388.408 269.5,390.5C 268.998,391.521 268.332,391.688 267.5,391C 265.899,387.253 264.233,383.753 262.5,380.5C 265.167,378.5 267.5,376.167 269.5,373.5 Z"/></g>
<g><path style="opacity:1" fill="#809001" d="M 260.5,381.5 C 261.167,381.5 261.833,381.5 262.5,381.5C 263.606,387.801 264.606,394.134 265.5,400.5C 263.863,398.684 262.363,396.684 261,394.5C 260.209,397.959 259.209,401.293 258,404.5C 256.81,400.619 256.143,396.619 256,392.5C 255.581,391.328 254.915,390.328 254,389.5C 252.571,392.224 251.071,394.891 249.5,397.5C 248.264,396.754 246.93,396.421 245.5,396.5C 245.706,393.505 245.04,390.838 243.5,388.5C 244.429,387.685 245.429,386.852 246.5,386C 249.695,385.819 252.695,385.319 255.5,384.5C 257.565,384.047 259.232,383.047 260.5,381.5 Z"/></g>
<g><path style="opacity:1" fill="#a97137" d="M 241.5,381.5 C 244.01,382.783 246.677,383.783 249.5,384.5C 251.5,384.5 253.5,384.5 255.5,384.5C 252.695,385.319 249.695,385.819 246.5,386C 245.429,386.852 244.429,387.685 243.5,388.5C 243.5,389.167 243.167,389.5 242.5,389.5C 241.833,389.833 241.167,390.167 240.5,390.5C 236.485,393.197 234.651,396.863 235,401.5C 232.861,398.728 233.027,396.062 235.5,393.5C 235.167,393.167 234.833,392.833 234.5,392.5C 229.511,395.484 226.511,399.817 225.5,405.5C 219.833,405.336 219.5,405.003 224.5,404.5C 224.178,400.65 225.511,397.483 228.5,395C 226.167,394.333 223.833,394.333 221.5,395C 220.383,397.425 218.883,399.591 217,401.5C 216.313,403.568 216.48,405.568 217.5,407.5C 216.726,408.711 215.893,408.711 215,407.5C 214.333,405.5 214.333,403.5 215,401.5C 216.697,399.301 218.197,396.968 219.5,394.5C 219,394.167 218.5,393.833 218,393.5C 215.631,395.603 213.798,398.103 212.5,401C 209.439,401.849 206.772,403.349 204.5,405.5C 203.406,404.132 203.74,402.965 205.5,402C 207.5,401.333 209.5,400.667 211.5,400C 212.308,397.912 213.308,395.912 214.5,394C 199.59,390.303 199.924,388.636 215.5,389C 214.167,388.667 212.833,388.333 211.5,388C 210.415,385.828 209.081,383.828 207.5,382C 209.731,381.837 211.065,383.003 211.5,385.5C 214.856,386.877 218.189,388.21 221.5,389.5C 222.833,389.333 224.167,389.167 225.5,389C 220.813,387.478 217.146,384.645 214.5,380.5C 214.833,380.167 215.167,379.833 215.5,379.5C 220.278,384.865 226.278,387.531 233.5,387.5C 233.714,385.856 233.38,384.356 232.5,383C 229.5,382.667 226.5,382.333 223.5,382C 221.675,380.534 221.175,378.701 222,376.5C 222.309,377.766 222.809,378.933 223.5,380C 227.191,380.42 230.858,380.92 234.5,381.5C 234.312,383.103 234.812,384.437 236,385.5C 237.812,384.023 239.645,382.69 241.5,381.5 Z"/></g>
<g><path style="opacity:1" fill="#c6bb03" d="M 272.5,368.5 C 274.131,372.232 275.131,376.232 275.5,380.5C 275.5,382.833 275.5,385.167 275.5,387.5C 274.123,384.468 272.457,381.468 270.5,378.5C 269.548,376.955 269.215,375.288 269.5,373.5C 270.752,371.999 271.752,370.332 272.5,368.5 Z"/></g>
<g><path style="opacity:1" fill="#8f9d01" d="M 279.5,348.5 C 279.833,348.5 280.167,348.5 280.5,348.5C 280.756,350.792 280.423,352.959 279.5,355C 280.793,355.49 282.127,355.657 283.5,355.5C 283.826,358.311 284.659,360.978 286,363.5C 287.892,362.383 288.725,360.716 288.5,358.5C 290.785,365.913 292.451,373.58 293.5,381.5C 293.5,383.833 293.5,386.167 293.5,388.5C 292.542,388.047 291.708,387.381 291,386.5C 290.143,381.235 288.143,376.569 285,372.5C 286.519,383.382 287.352,394.382 287.5,405.5C 287.644,410.671 287.144,415.671 286,420.5C 286.072,410.281 284.738,400.281 282,390.5C 280.14,386.382 278.807,382.048 278,377.5C 277.333,376.167 276.667,376.167 276,377.5C 275.517,378.448 275.351,379.448 275.5,380.5C 275.131,376.232 274.131,372.232 272.5,368.5C 276.537,362.427 278.87,355.76 279.5,348.5 Z"/></g>
<g><path style="opacity:1" fill="#291c14" d="M 279.5,348.5 C 278.87,355.76 276.537,362.427 272.5,368.5C 271.752,370.332 270.752,371.999 269.5,373.5C 267.5,376.167 265.167,378.5 262.5,380.5C 262.5,380.833 262.5,381.167 262.5,381.5C 261.833,381.5 261.167,381.5 260.5,381.5C 259.448,381.649 258.448,381.483 257.5,381C 263.855,367.122 270.355,353.288 277,339.5C 277.667,338.167 278.333,338.167 279,339.5C 279.498,342.482 279.665,345.482 279.5,348.5 Z"/></g>
<g><path style="opacity:1" fill="#2b1e15" d="M 252.5,329.5 C 253.791,329.263 254.791,329.596 255.5,330.5C 251.99,333.358 249.657,337.024 248.5,341.5C 245.5,347.52 243,353.854 241,360.5C 240.264,365.866 240.431,371.2 241.5,376.5C 241.253,377.713 240.586,378.38 239.5,378.5C 235.397,370.541 234.564,362.208 237,353.5C 238.919,343.311 244.086,335.311 252.5,329.5 Z"/></g>
<g><path style="opacity:1" fill="#a5ae0a" d="M 281.5,327.5 C 284.591,337.542 286.924,347.875 288.5,358.5C 288.725,360.716 287.892,362.383 286,363.5C 284.659,360.978 283.826,358.311 283.5,355.5C 282.127,355.657 280.793,355.49 279.5,355C 280.423,352.959 280.756,350.792 280.5,348.5C 280.754,343.03 280.087,337.696 278.5,332.5C 279.313,330.739 280.313,329.072 281.5,327.5 Z"/></g>
<g><path style="opacity:1" fill="#88a804" d="M 248.5,341.5 C 249.657,337.024 251.99,333.358 255.5,330.5C 257.836,328.609 260.502,328.109 263.5,329C 257.333,332.5 252.5,337.333 249,343.5C 248.536,342.906 248.369,342.239 248.5,341.5 Z"/></g>
<g><path style="opacity:1" fill="#3e2615" d="M 272.5,329.5 C 274.784,329.975 276.784,330.975 278.5,332.5C 280.087,337.696 280.754,343.03 280.5,348.5C 280.167,348.5 279.833,348.5 279.5,348.5C 279.665,345.482 279.498,342.482 279,339.5C 278.333,338.167 277.667,338.167 277,339.5C 270.355,353.288 263.855,367.122 257.5,381C 258.448,381.483 259.448,381.649 260.5,381.5C 259.232,383.047 257.565,384.047 255.5,384.5C 253.5,384.5 251.5,384.5 249.5,384.5C 248.737,383.732 247.737,383.232 246.5,383C 249.354,379.124 251.854,374.957 254,370.5C 260.348,356.497 266.514,342.83 272.5,329.5 Z"/></g>
<g><path style="opacity:1" fill="#542f16" d="M 256.5,326.5 C 257.833,326.5 259.167,326.5 260.5,326.5C 263.206,326.575 265.873,326.908 268.5,327.5C 270.483,327.157 271.817,327.824 272.5,329.5C 266.514,342.83 260.348,356.497 254,370.5C 251.854,374.957 249.354,379.124 246.5,383C 247.737,383.232 248.737,383.732 249.5,384.5C 246.677,383.783 244.01,382.783 241.5,381.5C 240.833,380.5 240.167,379.5 239.5,378.5C 240.586,378.38 241.253,377.713 241.5,376.5C 240.431,371.2 240.264,365.866 241,360.5C 243,353.854 245.5,347.52 248.5,341.5C 248.369,342.239 248.536,342.906 249,343.5C 252.5,337.333 257.333,332.5 263.5,329C 260.502,328.109 257.836,328.609 255.5,330.5C 254.791,329.596 253.791,329.263 252.5,329.5C 252.833,328.5 253.5,327.833 254.5,327.5C 255.492,327.672 256.158,327.338 256.5,326.5 Z"/></g>
<g><path style="opacity:1" fill="#a5ae62" d="M 261.5,306.5 C 263.077,311.234 263.911,316.234 264,321.5C 268.675,323.334 270.508,321.667 269.5,316.5C 271.322,316.831 272.989,317.498 274.5,318.5C 272.242,321.357 270.242,324.357 268.5,327.5C 265.873,326.908 263.206,326.575 260.5,326.5C 261.555,323.927 261.722,321.261 261,318.5C 260.329,317.748 259.496,317.414 258.5,317.5C 258.971,313.658 259.971,309.991 261.5,306.5 Z"/></g>
<g><path style="opacity:1" fill="#9ca82c" d="M 258.5,317.5 C 259.496,317.414 260.329,317.748 261,318.5C 261.722,321.261 261.555,323.927 260.5,326.5C 259.167,326.5 257.833,326.5 256.5,326.5C 257.167,323.5 257.833,320.5 258.5,317.5 Z"/></g>
<g><path style="opacity:1" fill="#668302" d="M 285.5,277.5 C 285.832,292.556 285.165,307.556 283.5,322.5C 281.787,323.635 281.12,325.302 281.5,327.5C 280.313,329.072 279.313,330.739 278.5,332.5C 276.784,330.975 274.784,329.975 272.5,329.5C 271.817,327.824 270.483,327.157 268.5,327.5C 270.242,324.357 272.242,321.357 274.5,318.5C 276.105,315.622 277.439,312.622 278.5,309.5C 279.405,308.298 279.405,306.964 278.5,305.5C 279.931,305.119 280.764,304.119 281,302.5C 281.497,299.854 281.664,297.187 281.5,294.5C 282.311,288.589 283.644,282.922 285.5,277.5 Z"/></g>
<g><path style="opacity:1" fill="#b0b298" d="M 263.5,296.5 C 264.309,298.292 264.809,300.292 265,302.5C 265.561,303.022 266.228,303.355 267,303.5C 268.15,302.576 269.15,302.576 270,303.5C 271.147,301.181 272.981,299.848 275.5,299.5C 275.899,303.116 276.899,306.45 278.5,309.5C 277.439,312.622 276.105,315.622 274.5,318.5C 272.989,317.498 271.322,316.831 269.5,316.5C 270.508,321.667 268.675,323.334 264,321.5C 263.911,316.234 263.077,311.234 261.5,306.5C 262.167,303.167 262.833,299.833 263.5,296.5 Z"/></g>
<g><path style="opacity:1" fill="#a09314" d="M 278.5,288.5 C 279.514,290.574 280.514,292.574 281.5,294.5C 281.664,297.187 281.497,299.854 281,302.5C 280.764,304.119 279.931,305.119 278.5,305.5C 277.289,299.69 277.289,294.023 278.5,288.5 Z"/></g>
<g><path style="opacity:1" fill="#181911" d="M 164.5,152.5 C 164.5,153.167 164.833,153.5 165.5,153.5C 162.281,159.271 159.614,165.271 157.5,171.5C 156.136,173.22 155.136,175.22 154.5,177.5C 158.445,178.491 162.445,178.824 166.5,178.5C 168.099,178.232 169.432,178.566 170.5,179.5C 165.156,179.334 159.823,179.501 154.5,180C 152.679,183.294 151.346,186.794 150.5,190.5C 150.747,191.713 151.414,192.38 152.5,192.5C 149.646,195.806 147.979,199.806 147.5,204.5C 149.167,204.5 150.833,204.5 152.5,204.5C 150.958,205.163 149.291,205.83 147.5,206.5C 146.583,209.758 146.249,213.091 146.5,216.5C 145.523,219.287 145.19,222.287 145.5,225.5C 147.415,225.216 149.081,225.549 150.5,226.5C 148.833,226.5 147.167,226.5 145.5,226.5C 145.5,233.5 145.5,240.5 145.5,247.5C 147.415,247.216 149.081,247.549 150.5,248.5C 148.833,248.5 147.167,248.5 145.5,248.5C 145.669,253.181 146.002,257.848 146.5,262.5C 147.791,262.263 148.791,262.596 149.5,263.5C 148.503,263.47 147.836,263.97 147.5,265C 149.012,274.556 151.679,283.723 155.5,292.5C 162.751,292.706 170.084,292.706 177.5,292.5C 170.993,293.615 164.327,294.615 157.5,295.5C 163.081,303.04 170.581,306.707 180,306.5C 191.995,306.752 201.495,302.085 208.5,292.5C 211.295,290.249 213.628,287.582 215.5,284.5C 222.081,268.642 233.415,263.642 249.5,269.5C 250.519,267.54 250.519,265.54 249.5,263.5C 251.713,265.958 252.879,268.958 253,272.5C 255.4,274.729 257.567,277.063 259.5,279.5C 262.067,284.869 263.4,290.536 263.5,296.5C 262.833,299.833 262.167,303.167 261.5,306.5C 259.971,309.991 258.971,313.658 258.5,317.5C 257.833,320.5 257.167,323.5 256.5,326.5C 256.158,327.338 255.492,327.672 254.5,327.5C 255.967,318.666 258.134,309.999 261,301.5C 262.632,286.595 256.799,275.762 243.5,269C 236.419,267.805 230.086,269.471 224.5,274C 220.515,280.284 216.348,286.451 212,292.5C 197.286,309.845 180.119,313.012 160.5,302C 153.851,295.538 149.684,287.704 148,278.5C 139.147,239.03 142.48,200.697 158,163.5C 159.689,159.44 161.856,155.773 164.5,152.5 Z"/></g>
<g><path style="opacity:1" fill="#19170a" d="M 277.5,284.5 C 278.434,285.568 278.768,286.901 278.5,288.5C 277.289,294.023 277.289,299.69 278.5,305.5C 279.405,306.964 279.405,308.298 278.5,309.5C 276.899,306.45 275.899,303.116 275.5,299.5C 275.334,295.486 275.501,291.486 276,287.5C 276.232,286.263 276.732,285.263 277.5,284.5 Z"/></g>
<g><path style="opacity:1" fill="#b7b9ae" d="M 259.5,279.5 C 261.5,279.5 263.5,279.5 265.5,279.5C 269.167,279.5 272.833,279.5 276.5,279.5C 277.038,281.117 277.371,282.784 277.5,284.5C 276.732,285.263 276.232,286.263 276,287.5C 275.501,291.486 275.334,295.486 275.5,299.5C 272.981,299.848 271.147,301.181 270,303.5C 269.15,302.576 268.15,302.576 267,303.5C 266.228,303.355 265.561,303.022 265,302.5C 264.809,300.292 264.309,298.292 263.5,296.5C 263.4,290.536 262.067,284.869 259.5,279.5 Z"/></g>
<g><path style="opacity:1" fill="#b4b5b4" d="M 249.5,263.5 C 250.519,265.54 250.519,267.54 249.5,269.5C 233.415,263.642 222.081,268.642 215.5,284.5C 215.5,282.833 215.5,281.167 215.5,279.5C 213.167,279.5 210.833,279.5 208.5,279.5C 208.5,283.833 208.5,288.167 208.5,292.5C 201.495,302.085 191.995,306.752 180,306.5C 170.581,306.707 163.081,303.04 157.5,295.5C 164.327,294.615 170.993,293.615 177.5,292.5C 180.187,292.664 182.854,292.497 185.5,292C 186.056,291.617 186.389,291.117 186.5,290.5C 196.312,283.739 205.645,276.239 214.5,268C 218.643,264.759 223.31,262.926 228.5,262.5C 235.608,260.912 242.608,261.245 249.5,263.5 Z"/></g>
<g><path style="opacity:1" fill="#223a23" d="M 241.5,254.5 C 243.484,258.157 246.151,261.157 249.5,263.5C 242.608,261.245 235.608,260.912 228.5,262.5C 233.251,261.004 238.251,260.004 243.5,259.5C 242.544,257.925 241.877,256.258 241.5,254.5 Z"/></g>
<g><path style="opacity:1" fill="#d9e4fb" d="M 320.5,242.5 C 316.922,252.151 314.922,262.151 314.5,272.5C 305.951,265.411 296.951,264.745 287.5,270.5C 289.625,261.203 292.625,252.203 296.5,243.5C 304.414,242.533 312.414,242.199 320.5,242.5 Z"/></g>
<g><path style="opacity:1" fill="#2d532b" d="M 192.5,253.5 C 191.92,255.749 190.587,257.415 188.5,258.5C 189.08,256.251 190.413,254.585 192.5,253.5 Z"/></g>
<g><path style="opacity:1" fill="#dae6fc" d="M 263.5,247.5 C 267.808,250.309 271.641,253.643 275,257.5C 275.478,264.841 275.978,272.174 276.5,279.5C 272.833,279.5 269.167,279.5 265.5,279.5C 263.402,276.844 260.902,274.511 258,272.5C 255.188,265.845 256.521,260.178 262,255.5C 262.272,252.746 262.772,250.079 263.5,247.5 Z"/></g>
<g><path style="opacity:1" fill="#bfe4f6" d="M 247.5,240.5 C 253.004,242.446 258.337,244.779 263.5,247.5C 262.772,250.079 262.272,252.746 262,255.5C 256.521,260.178 255.188,265.845 258,272.5C 260.902,274.511 263.402,276.844 265.5,279.5C 263.5,279.5 261.5,279.5 259.5,279.5C 257.567,277.063 255.4,274.729 253,272.5C 252.879,268.958 251.713,265.958 249.5,263.5C 246.151,261.157 243.484,258.157 241.5,254.5C 241.267,252.938 240.6,251.605 239.5,250.5C 242.294,248.181 244.128,245.181 245,241.5C 245.671,240.748 246.504,240.414 247.5,240.5 Z"/></g>
<g><path style="opacity:1" fill="#425129" d="M 233.5,246.5 C 234.167,246.5 234.833,246.5 235.5,246.5C 235.833,247.167 236.167,247.833 236.5,248.5C 234.973,248.573 233.973,247.906 233.5,246.5 Z"/></g>
<g><path style="opacity:1" fill="#455b4c" d="M 188.5,242.5 C 187.167,245.833 184.833,248.167 181.5,249.5C 183.5,246.833 185.833,244.5 188.5,242.5 Z"/></g>
<g><path style="opacity:1" fill="#1ba221" d="M 218.5,243.5 C 223.846,242.979 228.846,243.979 233.5,246.5C 233.973,247.906 234.973,248.573 236.5,248.5C 237.5,249.167 238.5,249.833 239.5,250.5C 240.6,251.605 241.267,252.938 241.5,254.5C 241.877,256.258 242.544,257.925 243.5,259.5C 238.251,260.004 233.251,261.004 228.5,262.5C 223.31,262.926 218.643,264.759 214.5,268C 205.645,276.239 196.312,283.739 186.5,290.5C 183.311,290.858 180.311,291.525 177.5,292.5C 170.084,292.706 162.751,292.706 155.5,292.5C 151.679,283.723 149.012,274.556 147.5,265C 147.836,263.97 148.503,263.47 149.5,263.5C 155.954,264.977 162.62,265.977 169.5,266.5C 173.086,266.45 176.42,265.783 179.5,264.5C 182.488,262.589 185.488,260.589 188.5,258.5C 190.587,257.415 191.92,255.749 192.5,253.5C 194.294,251.203 196.294,249.037 198.5,247C 205.462,246.75 212.128,245.583 218.5,243.5 Z"/></g>
<g><path style="opacity:1" fill="#2c3f2a" d="M 149.5,263.5 C 159.484,264.213 169.484,264.547 179.5,264.5C 176.42,265.783 173.086,266.45 169.5,266.5C 162.62,265.977 155.954,264.977 149.5,263.5 Z"/></g>
<g><path style="opacity:1" fill="#c8dedd" d="M 228.5,239.5 C 229.89,240.899 230.89,242.566 231.5,244.5C 229.241,243.656 228.241,241.989 228.5,239.5 Z"/></g>
<g><path style="opacity:1" fill="#343933" d="M 227.5,232.5 C 228.219,234.764 228.552,237.097 228.5,239.5C 228.241,241.989 229.241,243.656 231.5,244.5C 232.5,244.833 233.167,245.5 233.5,246.5C 228.846,243.979 223.846,242.979 218.5,243.5C 221.287,242.523 224.287,242.19 227.5,242.5C 226.988,238.965 226.988,235.632 227.5,232.5 Z"/></g>
<g><path style="opacity:1" fill="#405848" d="M 196.5,234.5 C 194.167,237.5 191.5,240.167 188.5,242.5C 190.167,238.833 192.833,236.167 196.5,234.5 Z"/></g>
<g><path style="opacity:1" fill="#f1f4fa" d="M 308.5,223.5 C 311.266,226.083 314.266,228.583 317.5,231C 320.063,232.079 322.729,232.579 325.5,232.5C 324.325,236.183 322.659,239.516 320.5,242.5C 312.414,242.199 304.414,242.533 296.5,243.5C 299.497,236.162 303.497,229.495 308.5,223.5 Z"/></g>
<g><path style="opacity:1" fill="#8ab010" d="M 308.5,211.5 C 312.55,211.119 316.217,212.119 319.5,214.5C 315.212,216.801 311.545,219.801 308.5,223.5C 303.497,229.495 299.497,236.162 296.5,243.5C 292.625,252.203 289.625,261.203 287.5,270.5C 287.167,271.167 286.833,271.833 286.5,272.5C 285.549,273.919 285.216,275.585 285.5,277.5C 283.644,282.922 282.311,288.589 281.5,294.5C 280.514,292.574 279.514,290.574 278.5,288.5C 278.768,286.901 278.434,285.568 277.5,284.5C 277.371,282.784 277.038,281.117 276.5,279.5C 275.978,272.174 275.478,264.841 275,257.5C 271.641,253.643 267.808,250.309 263.5,247.5C 258.337,244.779 253.004,242.446 247.5,240.5C 243.832,239.515 240.166,238.181 236.5,236.5C 244.243,232.155 252.576,230.488 261.5,231.5C 264.253,232.022 266.92,232.856 269.5,234C 273.379,237.054 277.045,240.221 280.5,243.5C 276.975,250.77 275.808,258.436 277,266.5C 277.667,265.833 278.333,265.167 279,264.5C 280.578,257.834 282.911,251.501 286,245.5C 287.615,242.55 289.615,239.884 292,237.5C 292.85,233.39 294.016,229.39 295.5,225.5C 297.562,223.597 298.896,221.263 299.5,218.5C 300.817,216.841 302.483,215.674 304.5,215C 303.906,214.536 303.239,214.369 302.5,214.5C 302.5,214.167 302.5,213.833 302.5,213.5C 304.698,213.125 306.698,212.458 308.5,211.5 Z"/></g>
<g><path style="opacity:1" fill="#b2b3b2" d="M 222.5,227.5 C 225.144,228.144 226.811,229.811 227.5,232.5C 226.988,235.632 226.988,238.965 227.5,242.5C 224.287,242.19 221.287,242.523 218.5,243.5C 212.128,245.583 205.462,246.75 198.5,247C 196.294,249.037 194.294,251.203 192.5,253.5C 190.413,254.585 189.08,256.251 188.5,258.5C 185.488,260.589 182.488,262.589 179.5,264.5C 169.484,264.547 159.484,264.213 149.5,263.5C 148.791,262.596 147.791,262.263 146.5,262.5C 146.002,257.848 145.669,253.181 145.5,248.5C 147.167,248.5 148.833,248.5 150.5,248.5C 152.621,248.325 154.621,248.659 156.5,249.5C 158.838,251.04 161.505,251.706 164.5,251.5C 170.353,251.949 176.02,251.283 181.5,249.5C 184.833,248.167 187.167,245.833 188.5,242.5C 191.5,240.167 194.167,237.5 196.5,234.5C 198.637,231.027 201.637,228.694 205.5,227.5C 211.181,226.312 216.848,226.312 222.5,227.5 Z"/></g>
<g><path style="opacity:1" fill="#1c3022" d="M 156.5,249.5 C 159.495,249.294 162.162,249.96 164.5,251.5C 161.505,251.706 158.838,251.04 156.5,249.5 Z"/></g>
<g><path style="opacity:1" fill="#1c4327" d="M 220.5,224.5 C 221.906,224.973 222.573,225.973 222.5,227.5C 216.848,226.312 211.181,226.312 205.5,227.5C 210.4,226.008 215.4,225.008 220.5,224.5 Z"/></g>
<g><path style="opacity:1" fill="#9eca0f" d="M 302.5,214.5 C 303.239,214.369 303.906,214.536 304.5,215C 302.483,215.674 300.817,216.841 299.5,218.5C 298.896,221.263 297.562,223.597 295.5,225.5C 294.016,229.39 292.85,233.39 292,237.5C 289.615,239.884 287.615,242.55 286,245.5C 282.911,251.501 280.578,257.834 279,264.5C 278.333,265.167 277.667,265.833 277,266.5C 275.808,258.436 276.975,250.77 280.5,243.5C 281.015,241.106 281.681,238.772 282.5,236.5C 287.434,227.567 294.101,220.234 302.5,214.5 Z"/></g>
<g><path style="opacity:1" fill="#6f817a" d="M 212.5,219.5 C 213.833,219.5 215.167,219.5 216.5,219.5C 217.906,219.973 218.573,220.973 218.5,222.5C 216.181,222.008 214.181,221.008 212.5,219.5 Z"/></g>
<g><path style="opacity:1" fill="#01ac4e" d="M 202.5,217.5 C 206.122,217.322 209.456,217.989 212.5,219.5C 214.181,221.008 216.181,222.008 218.5,222.5C 219.5,222.833 220.167,223.5 220.5,224.5C 215.4,225.008 210.4,226.008 205.5,227.5C 201.637,228.694 198.637,231.027 196.5,234.5C 192.833,236.167 190.167,238.833 188.5,242.5C 185.833,244.5 183.5,246.833 181.5,249.5C 176.02,251.283 170.353,251.949 164.5,251.5C 162.162,249.96 159.495,249.294 156.5,249.5C 154.621,248.659 152.621,248.325 150.5,248.5C 149.081,247.549 147.415,247.216 145.5,247.5C 145.5,240.5 145.5,233.5 145.5,226.5C 147.167,226.5 148.833,226.5 150.5,226.5C 155.324,228.151 160.324,228.817 165.5,228.5C 169.311,229.645 173.311,229.812 177.5,229C 178.056,228.617 178.389,228.117 178.5,227.5C 182.507,224.818 186.173,221.818 189.5,218.5C 193.785,217.705 198.119,217.372 202.5,217.5 Z"/></g>
<g><path style="opacity:1" fill="#112617" d="M 178.5,227.5 C 178.389,228.117 178.056,228.617 177.5,229C 173.311,229.812 169.311,229.645 165.5,228.5C 169.881,228.628 174.215,228.295 178.5,227.5 Z"/></g>
<g><path style="opacity:1" fill="#2b322f" d="M 193.5,206.5 C 194.75,206.577 195.583,207.244 196,208.5C 196.497,211.146 196.664,213.813 196.5,216.5C 198.735,216.205 200.735,216.539 202.5,217.5C 198.119,217.372 193.785,217.705 189.5,218.5C 191.102,216.926 193.102,216.259 195.5,216.5C 195.848,212.915 195.181,209.582 193.5,206.5 Z"/></g>
<g><path style="opacity:1" fill="#1c2c1c" d="M 170.5,215.5 C 170.389,216.117 170.056,216.617 169.5,217C 161.988,217.822 154.655,217.655 147.5,216.5C 155.222,216.767 162.889,216.434 170.5,215.5 Z"/></g>
<g><path style="opacity:1" fill="#b1b2b1" d="M 193.5,206.5 C 195.181,209.582 195.848,212.915 195.5,216.5C 193.102,216.259 191.102,216.926 189.5,218.5C 186.173,221.818 182.507,224.818 178.5,227.5C 174.215,228.295 169.881,228.628 165.5,228.5C 160.324,228.817 155.324,228.151 150.5,226.5C 149.081,225.549 147.415,225.216 145.5,225.5C 145.19,222.287 145.523,219.287 146.5,216.5C 146.833,216.5 147.167,216.5 147.5,216.5C 154.655,217.655 161.988,217.822 169.5,217C 170.056,216.617 170.389,216.117 170.5,215.5C 172.241,213.023 173.741,210.356 175,207.5C 175.671,206.748 176.504,206.414 177.5,206.5C 182.886,205.339 188.22,205.339 193.5,206.5 Z"/></g>
<g><path style="opacity:1" fill="#173616" d="M 191.5,200.5 C 193.074,202.102 193.741,204.102 193.5,206.5C 188.22,205.339 182.886,205.339 177.5,206.5C 178.263,205.732 179.263,205.232 180.5,205C 184.152,204.501 187.818,204.335 191.5,204.5C 191.5,203.167 191.5,201.833 191.5,200.5 Z"/></g>
<g><path style="opacity:1" fill="#eef5f9" d="M 175.5,183.5 C 180.74,183.027 185.407,184.36 189.5,187.5C 191.79,191.236 193.124,195.236 193.5,199.5C 197.161,200.375 200.494,199.375 203.5,196.5C 208.589,203.672 212.923,211.339 216.5,219.5C 215.167,219.5 213.833,219.5 212.5,219.5C 209.456,217.989 206.122,217.322 202.5,217.5C 200.735,216.539 198.735,216.205 196.5,216.5C 196.664,213.813 196.497,211.146 196,208.5C 195.583,207.244 194.75,206.577 193.5,206.5C 193.741,204.102 193.074,202.102 191.5,200.5C 191.573,198.973 190.906,197.973 189.5,197.5C 189.027,196.094 188.027,195.427 186.5,195.5C 185.391,194.71 184.058,194.21 182.5,194C 181.512,191.833 180.179,190 178.5,188.5C 178.672,187.508 178.338,186.842 177.5,186.5C 177.218,185.222 176.551,184.222 175.5,183.5 Z"/></g>
<g><path style="opacity:1" fill="#fcfbbb" d="M 212.5,186.5 C 219.769,206.639 227.436,226.639 235.5,246.5C 234.833,246.5 234.167,246.5 233.5,246.5C 233.167,245.5 232.5,244.833 231.5,244.5C 230.89,242.566 229.89,240.899 228.5,239.5C 228.552,237.097 228.219,234.764 227.5,232.5C 226.811,229.811 225.144,228.144 222.5,227.5C 222.573,225.973 221.906,224.973 220.5,224.5C 220.167,223.5 219.5,222.833 218.5,222.5C 218.573,220.973 217.906,219.973 216.5,219.5C 212.923,211.339 208.589,203.672 203.5,196.5C 207.212,193.789 210.212,190.456 212.5,186.5 Z"/></g>
<g><path style="opacity:1" fill="#2a492c" d="M 189.5,197.5 C 190.906,197.973 191.573,198.973 191.5,200.5C 190.094,200.027 189.427,199.027 189.5,197.5 Z"/></g>
<g><path style="opacity:1" fill="#213420" d="M 167.5,196.5 C 164.417,197.993 161.083,198.993 157.5,199.5C 160.321,197.288 163.655,196.288 167.5,196.5 Z"/></g>
<g><path style="opacity:1" fill="#1aa221" d="M 167.5,196.5 C 170.167,196.5 172.833,196.5 175.5,196.5C 180.23,196.283 184.897,196.617 189.5,197.5C 189.427,199.027 190.094,200.027 191.5,200.5C 191.5,201.833 191.5,203.167 191.5,204.5C 187.818,204.335 184.152,204.501 180.5,205C 179.263,205.232 178.263,205.732 177.5,206.5C 176.504,206.414 175.671,206.748 175,207.5C 173.741,210.356 172.241,213.023 170.5,215.5C 162.889,216.434 155.222,216.767 147.5,216.5C 147.167,216.5 146.833,216.5 146.5,216.5C 146.249,213.091 146.583,209.758 147.5,206.5C 149.291,205.83 150.958,205.163 152.5,204.5C 154.816,203.578 156.483,201.911 157.5,199.5C 161.083,198.993 164.417,197.993 167.5,196.5 Z"/></g>
<g><path style="opacity:1" fill="#1f641f" d="M 175.5,196.5 C 178.962,195.518 182.629,195.185 186.5,195.5C 188.027,195.427 189.027,196.094 189.5,197.5C 184.897,196.617 180.23,196.283 175.5,196.5 Z"/></g>
<g><path style="opacity:1" fill="#3e4440" d="M 178.5,188.5 C 180.179,190 181.512,191.833 182.5,194C 184.058,194.21 185.391,194.71 186.5,195.5C 182.629,195.185 178.962,195.518 175.5,196.5C 172.833,196.5 170.167,196.5 167.5,196.5C 171.683,195.415 176.016,194.415 180.5,193.5C 179.544,191.925 178.877,190.258 178.5,188.5 Z"/></g>
<g><path style="opacity:1" fill="#bbe4f6" d="M 266.5,123.5 C 266.351,124.552 266.517,125.552 267,126.5C 267.333,126.167 267.667,125.833 268,125.5C 268.415,127.291 269.415,128.624 271,129.5C 271.184,132.836 272.184,136.17 274,139.5C 274.75,140.126 275.584,140.626 276.5,141C 275.009,143.022 275.342,144.688 277.5,146C 277.043,146.414 276.709,146.914 276.5,147.5C 279.367,152.473 280.701,157.64 280.5,163C 281.86,166.415 282.86,169.748 283.5,173C 282.366,174.016 282.699,174.683 284.5,175C 284.176,180.095 283.842,185.429 283.5,191C 284.657,197.738 285.324,204.404 285.5,211C 283.327,212.865 282.993,215.031 284.5,217.5C 283.617,218.548 282.95,219.715 282.5,221C 281.831,224.001 281.831,227.168 282.5,230.5C 281.389,231.611 280.722,232.945 280.5,234.5C 280.747,235.713 281.414,236.38 282.5,236.5C 281.681,238.772 281.015,241.106 280.5,243.5C 277.045,240.221 273.379,237.054 269.5,234C 266.92,232.856 264.253,232.022 261.5,231.5C 258.038,230.518 254.371,230.185 250.5,230.5C 251.47,224.147 252.637,217.814 254,211.5C 254.5,203.173 254.666,194.84 254.5,186.5C 263.872,188.118 273.205,189.618 282.5,191C 272.593,186.545 262.593,182.378 252.5,178.5C 252.5,178.167 252.5,177.833 252.5,177.5C 250.764,164.28 246.097,152.28 238.5,141.5C 247.565,135.106 256.898,129.106 266.5,123.5 Z"/></g>
<g><path style="opacity:1" fill="#161614" d="M 366.5,108.5 C 368.833,109.167 371.167,109.833 373.5,110.5C 364.85,108.814 359.516,112.147 357.5,120.5C 363.959,120.9 369.959,122.733 375.5,126C 370.771,126.273 366.104,126.939 361.5,128C 360.09,128.368 359.09,129.201 358.5,130.5C 381.573,158.202 393.74,190.202 395,226.5C 396.389,247.677 395.055,268.677 391,289.5C 387.78,304.372 379.614,315.539 366.5,323C 349.379,328.532 335.879,323.698 326,308.5C 320.032,298.309 316.366,287.309 315,275.5C 306.139,267.139 296.806,266.473 287,273.5C 286.601,273.272 286.435,272.938 286.5,272.5C 286.833,271.833 287.167,271.167 287.5,270.5C 296.951,264.745 305.951,265.411 314.5,272.5C 314.922,262.151 316.922,252.151 320.5,242.5C 322.659,239.516 324.325,236.183 325.5,232.5C 339.163,217.837 347.497,200.504 350.5,180.5C 351.329,175.547 351.663,170.547 351.5,165.5C 351.817,161.298 351.483,157.298 350.5,153.5C 350.67,152.178 350.337,151.011 349.5,150C 336.38,141.949 323.88,142.783 312,152.5C 311.905,147.546 313.072,142.879 315.5,138.5C 318.72,135.117 322.386,132.284 326.5,130C 331.167,129.667 335.833,129.333 340.5,129C 343.411,123.257 348.078,120.09 354.5,119.5C 356.613,113.718 360.613,110.051 366.5,108.5 Z"/></g>
<g><path style="opacity:1" fill="#d4d4d4" d="M 343.5,259.5 C 336.5,271.5 329.5,283.5 322.5,295.5C 310.523,272.431 317.523,260.431 343.5,259.5 Z"/></g>
<g><path style="opacity:1" fill="#f2f2f2" d="M 392.5,230.5 C 395.438,253.689 393.271,276.356 386,298.5C 381.998,308.169 375.498,315.669 366.5,321C 363.57,322.318 360.57,322.985 357.5,323C 363.858,312.403 366.858,300.903 366.5,288.5C 365.5,288.5 364.5,288.5 363.5,288.5C 364.299,301.262 360.966,312.762 353.5,323C 347.51,323.56 342.177,321.893 337.5,318C 330.093,311.996 325.093,304.496 322.5,295.5C 329.5,283.5 336.5,271.5 343.5,259.5C 352.243,259.327 360.91,259.994 369.5,261.5C 375.939,263.64 381.772,266.973 387,271.5C 387.333,273.5 387.667,275.5 388,277.5C 389.959,273.195 388.792,269.695 384.5,267C 381.473,265.487 378.473,263.987 375.5,262.5C 375.389,261.883 375.056,261.383 374.5,261C 380.4,250.688 386.4,240.521 392.5,230.5 Z"/></g>
<g><path style="opacity:1" fill="#353535" d="M 369.5,261.5 C 371.565,261.517 373.565,261.85 375.5,262.5C 378.473,263.987 381.473,265.487 384.5,267C 388.792,269.695 389.959,273.195 388,277.5C 387.667,275.5 387.333,273.5 387,271.5C 381.772,266.973 375.939,263.64 369.5,261.5 Z"/></g>
<g><path style="opacity:1" fill="#e9e9e9" d="M 382.5,189.5 C 387.872,202.654 391.205,216.321 392.5,230.5C 386.4,240.521 380.4,250.688 374.5,261C 375.056,261.383 375.389,261.883 375.5,262.5C 373.565,261.85 371.565,261.517 369.5,261.5C 364.471,259.585 359.137,258.585 353.5,258.5C 350.642,257.834 347.642,257.167 344.5,256.5C 356.435,233.617 369.101,211.284 382.5,189.5 Z"/></g>
<g><path style="opacity:1" fill="#3492b9" d="M 381.5,180.5 C 382.5,180.5 383.5,180.5 384.5,180.5C 388.397,190.483 390.563,200.817 391,211.5C 388.526,200.915 385.36,190.582 381.5,180.5 Z"/></g>
<g><path style="opacity:1" fill="#aeafae" d="M 177.5,186.5 C 178.338,186.842 178.672,187.508 178.5,188.5C 178.877,190.258 179.544,191.925 180.5,193.5C 176.016,194.415 171.683,195.415 167.5,196.5C 163.655,196.288 160.321,197.288 157.5,199.5C 156.483,201.911 154.816,203.578 152.5,204.5C 150.833,204.5 149.167,204.5 147.5,204.5C 147.979,199.806 149.646,195.806 152.5,192.5C 156.605,190.243 160.939,188.576 165.5,187.5C 169.481,186.979 173.481,186.646 177.5,186.5 Z"/></g>
<g><path style="opacity:1" fill="#d5d5d5" d="M 374.5,174.5 C 377.929,179.02 380.595,184.02 382.5,189.5C 369.101,211.284 356.435,233.617 344.5,256.5C 347.642,257.167 350.642,257.834 353.5,258.5C 344.722,258.084 336.056,258.751 327.5,260.5C 342.495,231.873 358.161,203.206 374.5,174.5 Z"/></g>
<g><path style="opacity:1" fill="#3b403a" d="M 174.5,182.5 C 175.167,182.5 175.5,182.833 175.5,183.5C 176.551,184.222 177.218,185.222 177.5,186.5C 173.481,186.646 169.481,186.979 165.5,187.5C 168.171,185.882 171.171,185.215 174.5,185.5C 174.5,184.5 174.5,183.5 174.5,182.5 Z"/></g>
<g><path style="opacity:1" fill="#fafc9f" d="M 252.5,178.5 C 262.593,182.378 272.593,186.545 282.5,191C 273.205,189.618 263.872,188.118 254.5,186.5C 253.833,186.167 253.167,185.833 252.5,185.5C 251.172,184.493 250.172,183.16 249.5,181.5C 251.991,180.459 251.991,179.626 249.5,179C 250.448,178.517 251.448,178.351 252.5,178.5 Z"/></g>
<g><path style="opacity:1" fill="#d6eff8" d="M 216.5,178.5 C 228.5,180.833 240.5,183.167 252.5,185.5C 253.167,185.833 253.833,186.167 254.5,186.5C 254.666,194.84 254.5,203.173 254,211.5C 252.637,217.814 251.47,224.147 250.5,230.5C 254.371,230.185 258.038,230.518 261.5,231.5C 252.576,230.488 244.243,232.155 236.5,236.5C 240.166,238.181 243.832,239.515 247.5,240.5C 246.504,240.414 245.671,240.748 245,241.5C 244.128,245.181 242.294,248.181 239.5,250.5C 238.5,249.833 237.5,249.167 236.5,248.5C 236.167,247.833 235.833,247.167 235.5,246.5C 227.436,226.639 219.769,206.639 212.5,186.5C 213.833,183.833 215.167,181.167 216.5,178.5 Z"/></g>
<g><path style="opacity:1" fill="#1b9920" d="M 170.5,179.5 C 172.632,179.554 173.965,180.554 174.5,182.5C 174.5,183.5 174.5,184.5 174.5,185.5C 171.171,185.215 168.171,185.882 165.5,187.5C 160.939,188.576 156.605,190.243 152.5,192.5C 151.414,192.38 150.747,191.713 150.5,190.5C 151.346,186.794 152.679,183.294 154.5,180C 159.823,179.501 165.156,179.334 170.5,179.5 Z"/></g>
<g><path style="opacity:1" fill="#fdfcb5" d="M 220.5,164.5 C 231.167,168.833 241.833,173.167 252.5,177.5C 252.5,177.833 252.5,178.167 252.5,178.5C 251.448,178.351 250.448,178.517 249.5,179C 251.991,179.626 251.991,180.459 249.5,181.5C 250.172,183.16 251.172,184.493 252.5,185.5C 240.5,183.167 228.5,180.833 216.5,178.5C 218.437,174.02 219.771,169.353 220.5,164.5 Z"/></g>
<g><path style="opacity:1" fill="#8ed3f1" d="M 307.5,171.5 C 312.192,174.286 317.192,176.286 322.5,177.5C 331.532,179.987 340.865,180.987 350.5,180.5C 347.497,200.504 339.163,217.837 325.5,232.5C 322.729,232.579 320.063,232.079 317.5,231C 314.266,228.583 311.266,226.083 308.5,223.5C 311.545,219.801 315.212,216.801 319.5,214.5C 316.217,212.119 312.55,211.119 308.5,211.5C 308.758,198.137 308.425,184.804 307.5,171.5 Z"/></g>
<g><path style="opacity:1" fill="#f9f9f7" d="M 157.5,171.5 C 161.493,172.651 164.493,174.985 166.5,178.5C 162.445,178.824 158.445,178.491 154.5,177.5C 155.136,175.22 156.136,173.22 157.5,171.5 Z"/></g>
<g><path style="opacity:1" fill="#c1c1c1" d="M 371.5,167.5 C 372.773,169.713 373.773,172.046 374.5,174.5C 358.161,203.206 342.495,231.873 327.5,260.5C 323.957,262.202 320.79,264.535 318,267.5C 317.506,265.866 317.34,264.199 317.5,262.5C 335.247,230.671 353.247,199.004 371.5,167.5 Z"/></g>
<g><path style="opacity:1" fill="#baccf0" d="M 366.5,153.5 C 368.5,153.5 370.5,153.5 372.5,153.5C 377.835,161.842 381.835,170.842 384.5,180.5C 383.5,180.5 382.5,180.5 381.5,180.5C 376.25,171.669 371.25,162.669 366.5,153.5 Z"/></g>
<g><path style="opacity:1" fill="#c3d6fe" d="M 351.5,165.5 C 351.663,170.547 351.329,175.547 350.5,180.5C 340.865,180.987 331.532,179.987 322.5,177.5C 324.199,177.66 325.866,177.494 327.5,177C 321.967,175.656 316.634,173.823 311.5,171.5C 310.27,169.703 309.604,167.703 309.5,165.5C 323.5,165.5 337.5,165.5 351.5,165.5 Z"/></g>
<g><path style="opacity:1" fill="#b2b2b2" d="M 367.5,159.5 C 369.341,161.849 370.674,164.515 371.5,167.5C 353.247,199.004 335.247,230.671 317.5,262.5C 318.791,253.336 321.625,244.669 326,236.5C 338.709,222.417 347.209,206.084 351.5,187.5C 356.401,177.929 361.734,168.596 367.5,159.5 Z"/></g>
<g><path style="opacity:1" fill="#cdddfe" d="M 350.5,153.5 C 351.483,157.298 351.817,161.298 351.5,165.5C 337.5,165.5 323.5,165.5 309.5,165.5C 309.604,167.703 310.27,169.703 311.5,171.5C 305.748,167.989 305.082,163.656 309.5,158.5C 308.954,156.865 308.62,155.199 308.5,153.5C 322.5,153.5 336.5,153.5 350.5,153.5 Z"/></g>
<g><path style="opacity:1" fill="#d2edf8" d="M 238.5,141.5 C 246.097,152.28 250.764,164.28 252.5,177.5C 241.833,173.167 231.167,168.833 220.5,164.5C 220.5,160.5 220.5,156.5 220.5,152.5C 226.806,149.346 232.806,145.68 238.5,141.5 Z"/></g>
<g><path style="opacity:1" fill="#d6e2fb" d="M 315.5,138.5 C 313.072,142.879 311.905,147.546 312,152.5C 323.88,142.783 336.38,141.949 349.5,150C 350.337,151.011 350.67,152.178 350.5,153.5C 336.5,153.5 322.5,153.5 308.5,153.5C 308.62,155.199 308.954,156.865 309.5,158.5C 305.082,163.656 305.748,167.989 311.5,171.5C 316.634,173.823 321.967,175.656 327.5,177C 325.866,177.494 324.199,177.66 322.5,177.5C 317.192,176.286 312.192,174.286 307.5,171.5C 303.891,167.53 303.557,163.197 306.5,158.5C 302.076,153.736 300.743,148.403 302.5,142.5C 302.682,147.794 303.182,147.794 304,142.5C 305.972,141.695 307.472,140.361 308.5,138.5C 310.973,137.203 313.307,137.203 315.5,138.5 Z"/></g>
<g><path style="opacity:1" fill="#d7e1f6" d="M 372.5,153.5 C 370.5,153.5 368.5,153.5 366.5,153.5C 361.439,150.065 356.939,146.065 353,141.5C 353.431,130.952 356.765,129.952 363,138.5C 366.677,143.19 369.844,148.19 372.5,153.5 Z"/></g>
<g><path style="opacity:1" fill="#fcfaaa" d="M 181.5,132.5 C 192.356,132.823 199.856,138.156 204,148.5C 208.13,162.144 205.296,173.977 195.5,184C 192.981,184.586 190.981,185.753 189.5,187.5C 185.407,184.36 180.74,183.027 175.5,183.5C 175.5,182.833 175.167,182.5 174.5,182.5C 173.965,180.554 172.632,179.554 170.5,179.5C 169.432,178.566 168.099,178.232 166.5,178.5C 164.493,174.985 161.493,172.651 157.5,171.5C 159.614,165.271 162.281,159.271 165.5,153.5C 169.632,145.562 174.965,138.562 181.5,132.5 Z"/></g>
<g><path style="opacity:1" fill="#fefcc1" d="M 181.5,141.5 C 192.886,141.046 199.219,146.546 200.5,158C 200.853,160.755 200.353,163.922 199,167.5C 195.812,178.102 189.312,181.269 179.5,177C 171.204,167.6 170.037,157.434 176,146.5C 177.73,144.598 179.563,142.931 181.5,141.5 Z"/></g>
<g><path style="opacity:1" fill="#fcfcae" d="M 266.5,123.5 C 256.898,129.106 247.565,135.106 238.5,141.5C 232.806,145.68 226.806,149.346 220.5,152.5C 220.095,147.544 218.762,142.877 216.5,138.5C 233.449,132.352 250.116,125.686 266.5,118.5C 271.155,116.669 275.822,115.169 280.5,114C 275.594,116.942 270.928,120.109 266.5,123.5 Z"/></g>
<g><path style="opacity:1" fill="#fdfc9f" d="M 183.5,121.5 C 184.434,122.568 184.768,123.901 184.5,125.5C 195.114,125.221 202.614,129.888 207,139.5C 212.178,151.555 212.845,163.888 209,176.5C 206.116,184.05 201.116,189.717 194,193.5C 193.505,195.473 193.338,197.473 193.5,199.5C 193.124,195.236 191.79,191.236 189.5,187.5C 190.981,185.753 192.981,184.586 195.5,184C 205.296,173.977 208.13,162.144 204,148.5C 199.856,138.156 192.356,132.823 181.5,132.5C 182.919,128.985 183.586,125.319 183.5,121.5 Z"/></g>
<g><path style="opacity:1" fill="#a0a0a0" d="M 367.5,159.5 C 361.734,168.596 356.401,177.929 351.5,187.5C 353.833,174.853 353.999,162.186 352,149.5C 340.293,141.011 328.126,140.345 315.5,147.5C 314.686,145.048 315.186,142.715 317,140.5C 323.085,131.794 331.252,129.128 341.5,132.5C 342.641,128.051 345.308,124.885 349.5,123C 355.237,122.211 360.903,122.544 366.5,124C 358.218,125.951 352.884,130.951 350.5,139C 351.356,141.88 352.356,144.713 353.5,147.5C 359.711,149.712 364.378,153.712 367.5,159.5 Z"/></g>
<g><path style="opacity:1" fill="#e9eef7" d="M 366.5,108.5 C 360.613,110.051 356.613,113.718 354.5,119.5C 348.078,120.09 343.411,123.257 340.5,129C 335.833,129.333 331.167,129.667 326.5,130C 322.386,132.284 318.72,135.117 315.5,138.5C 313.307,137.203 310.973,137.203 308.5,138.5C 307.472,140.361 305.972,141.695 304,142.5C 303.182,147.794 302.682,147.794 302.5,142.5C 304.679,136.385 309.012,132.551 315.5,131C 318.482,130.502 321.482,130.335 324.5,130.5C 324.401,127.763 324.735,125.096 325.5,122.5C 329.464,118.631 334.131,116.298 339.5,115.5C 344.872,114.991 350.205,114.158 355.5,113C 358.403,110.428 361.569,108.261 365,106.5C 366.03,106.836 366.53,107.503 366.5,108.5 Z"/></g>
<g><path style="opacity:1" fill="#a9ddf4" d="M 238.5,87.5 C 248.666,87.0928 258.666,88.0928 268.5,90.5C 272.917,96.9985 277.084,103.665 281,110.5C 282,111.167 283,111.833 284,112.5C 297.719,144.916 303.885,178.583 302.5,213.5C 302.5,213.833 302.5,214.167 302.5,214.5C 294.101,220.234 287.434,227.567 282.5,236.5C 281.414,236.38 280.747,235.713 280.5,234.5C 280.722,232.945 281.389,231.611 282.5,230.5C 281.831,227.168 281.831,224.001 282.5,221C 282.95,219.715 283.617,218.548 284.5,217.5C 282.993,215.031 283.327,212.865 285.5,211C 285.324,204.404 284.657,197.738 283.5,191C 283.842,185.429 284.176,180.095 284.5,175C 282.699,174.683 282.366,174.016 283.5,173C 282.86,169.748 281.86,166.415 280.5,163C 280.701,157.64 279.367,152.473 276.5,147.5C 276.709,146.914 277.043,146.414 277.5,146C 275.342,144.688 275.009,143.022 276.5,141C 275.584,140.626 274.75,140.126 274,139.5C 272.184,136.17 271.184,132.836 271,129.5C 269.415,128.624 268.415,127.291 268,125.5C 267.667,125.833 267.333,126.167 267,126.5C 266.517,125.552 266.351,124.552 266.5,123.5C 270.928,120.109 275.594,116.942 280.5,114C 275.822,115.169 271.155,116.669 266.5,118.5C 264.897,118.688 263.563,118.188 262.5,117C 262.833,116.667 263.167,116.333 263.5,116C 262.027,115.29 261.36,114.124 261.5,112.5C 260.178,112.33 259.011,112.663 258,113.5C 257.383,112.551 257.549,111.718 258.5,111C 257.262,111.077 256.262,110.911 255.5,110.5C 256.376,109.749 257.376,109.249 258.5,109C 255.74,107.556 253.907,105.389 253,102.5C 252.667,102.833 252.333,103.167 252,103.5C 251.606,101.045 250.44,99.0454 248.5,97.5C 247.808,98.0253 247.308,98.6919 247,99.5C 245.397,97.2659 243.897,94.9326 242.5,92.5C 240.267,93.0161 238.6,92.0161 237.5,89.5C 237.328,88.5084 237.662,87.8417 238.5,87.5 Z"/></g>
<g><path style="opacity:1" fill="#99d8f3" d="M 241.5,82.5 C 253.993,83.3309 266.66,83.8309 279.5,84C 283.958,86.3261 288.625,87.1595 293.5,86.5C 298.478,88.2168 303.478,90.0501 308.5,92C 311.914,93.0365 314.58,95.0365 316.5,98C 319.802,106.075 322.802,114.242 325.5,122.5C 324.735,125.096 324.401,127.763 324.5,130.5C 321.482,130.335 318.482,130.502 315.5,131C 309.012,132.551 304.679,136.385 302.5,142.5C 300.743,148.403 302.076,153.736 306.5,158.5C 303.557,163.197 303.891,167.53 307.5,171.5C 308.425,184.804 308.758,198.137 308.5,211.5C 306.698,212.458 304.698,213.125 302.5,213.5C 303.885,178.583 297.719,144.916 284,112.5C 283,111.833 282,111.167 281,110.5C 277.084,103.665 272.917,96.9985 268.5,90.5C 258.666,88.0928 248.666,87.0928 238.5,87.5C 239.263,85.6316 240.263,83.9649 241.5,82.5 Z"/></g>
<g><path style="opacity:1" fill="#fefe8b" d="M 191.5,115.5 C 192.167,115.5 192.833,115.5 193.5,115.5C 195.214,116.738 197.214,117.405 199.5,117.5C 201.205,119.192 203.205,120.525 205.5,121.5C 207.862,124.192 210.196,126.859 212.5,129.5C 214.105,132.378 215.439,135.378 216.5,138.5C 218.762,142.877 220.095,147.544 220.5,152.5C 220.5,156.5 220.5,160.5 220.5,164.5C 219.771,169.353 218.437,174.02 216.5,178.5C 215.167,181.167 213.833,183.833 212.5,186.5C 210.212,190.456 207.212,193.789 203.5,196.5C 200.494,199.375 197.161,200.375 193.5,199.5C 193.338,197.473 193.505,195.473 194,193.5C 201.116,189.717 206.116,184.05 209,176.5C 212.845,163.888 212.178,151.555 207,139.5C 202.614,129.888 195.114,125.221 184.5,125.5C 184.768,123.901 184.434,122.568 183.5,121.5C 183.371,119.784 183.038,118.117 182.5,116.5C 185.287,115.523 188.287,115.19 191.5,115.5 Z"/></g>
<g><path style="opacity:1" fill="#fcfcb1" d="M 238.5,81.5 C 239.5,81.5 240.5,81.5 241.5,81.5C 241.5,81.8333 241.5,82.1667 241.5,82.5C 240.263,83.9649 239.263,85.6316 238.5,87.5C 237.662,87.8417 237.328,88.5084 237.5,89.5C 228.68,102.461 220.347,115.794 212.5,129.5C 210.196,126.859 207.862,124.192 205.5,121.5C 212.833,112.833 220.167,104.167 227.5,95.5C 231.658,91.1661 235.324,86.4994 238.5,81.5 Z"/></g>
<g><path style="opacity:1" fill="#a59415" d="M 373.5,110.5 C 380.422,112.961 386.756,116.461 392.5,121C 456.116,176.188 478.283,245.022 459,327.5C 439.721,389.78 399.888,433.28 339.5,458C 330.753,459.717 322.753,458.05 315.5,453C 313.959,451.421 312.792,449.587 312,447.5C 300.953,406.19 291.453,364.524 283.5,322.5C 285.165,307.556 285.832,292.556 285.5,277.5C 285.216,275.585 285.549,273.919 286.5,272.5C 286.435,272.938 286.601,273.272 287,273.5C 296.806,266.473 306.139,267.139 315,275.5C 316.366,287.309 320.032,298.309 326,308.5C 335.879,323.698 349.379,328.532 366.5,323C 379.614,315.539 387.78,304.372 391,289.5C 395.055,268.677 396.389,247.677 395,226.5C 393.74,190.202 381.573,158.202 358.5,130.5C 359.09,129.201 360.09,128.368 361.5,128C 366.104,126.939 370.771,126.273 375.5,126C 369.959,122.733 363.959,120.9 357.5,120.5C 359.516,112.147 364.85,108.814 373.5,110.5 Z"/></g>
<g><path style="opacity:1" fill="#111111" d="M 334.5,283.5 C 345.03,284.728 347.697,289.895 342.5,299C 334,299.833 330.167,296 331,287.5C 332.376,286.295 333.542,284.962 334.5,283.5 Z"/></g>
<g><path style="opacity:1" fill="#e9e9e9" d="M 335.5,287.5 C 340.119,288.127 342.119,290.794 341.5,295.5C 335.952,295.303 333.952,292.636 335.5,287.5 Z"/></g>
<g><path style="opacity:1" fill="#c6e8f9" d="M 197.5,100.5 C 196.898,105.788 195.565,110.788 193.5,115.5C 192.833,115.5 192.167,115.5 191.5,115.5C 185.336,116.271 181.669,113.604 180.5,107.5C 186.048,104.893 191.715,102.56 197.5,100.5 Z"/></g>
<g><path style="opacity:1" fill="#a59415" d="M 164.5,152.5 C 161.856,155.773 159.689,159.44 158,163.5C 142.48,200.697 139.147,239.03 148,278.5C 149.684,287.704 153.851,295.538 160.5,302C 180.119,313.012 197.286,309.845 212,292.5C 216.348,286.451 220.515,280.284 224.5,274C 230.086,269.471 236.419,267.805 243.5,269C 256.799,275.762 262.632,286.595 261,301.5C 258.134,309.999 255.967,318.666 254.5,327.5C 253.5,327.833 252.833,328.5 252.5,329.5C 244.086,335.311 238.919,343.311 237,353.5C 234.564,362.208 235.397,370.541 239.5,378.5C 240.167,379.5 240.833,380.5 241.5,381.5C 239.645,382.69 237.812,384.023 236,385.5C 234.812,384.437 234.312,383.103 234.5,381.5C 230.858,380.92 227.191,380.42 223.5,380C 222.809,378.933 222.309,377.766 222,376.5C 221.175,378.701 221.675,380.534 223.5,382C 226.5,382.333 229.5,382.667 232.5,383C 233.38,384.356 233.714,385.856 233.5,387.5C 226.278,387.531 220.278,384.865 215.5,379.5C 215.167,379.833 214.833,380.167 214.5,380.5C 217.146,384.645 220.813,387.478 225.5,389C 224.167,389.167 222.833,389.333 221.5,389.5C 218.189,388.21 214.856,386.877 211.5,385.5C 211.065,383.003 209.731,381.837 207.5,382C 209.081,383.828 210.415,385.828 211.5,388C 212.833,388.333 214.167,388.667 215.5,389C 199.924,388.636 199.59,390.303 214.5,394C 213.308,395.912 212.308,397.912 211.5,400C 209.5,400.667 207.5,401.333 205.5,402C 203.74,402.965 203.406,404.132 204.5,405.5C 206.772,403.349 209.439,401.849 212.5,401C 213.798,398.103 215.631,395.603 218,393.5C 218.5,393.833 219,394.167 219.5,394.5C 218.197,396.968 216.697,399.301 215,401.5C 214.333,403.5 214.333,405.5 215,407.5C 215.893,408.711 216.726,408.711 217.5,407.5C 216.48,405.568 216.313,403.568 217,401.5C 218.883,399.591 220.383,397.425 221.5,395C 223.833,394.333 226.167,394.333 228.5,395C 225.511,397.483 224.178,400.65 224.5,404.5C 219.5,405.003 219.833,405.336 225.5,405.5C 226.511,399.817 229.511,395.484 234.5,392.5C 234.833,392.833 235.167,393.167 235.5,393.5C 233.027,396.062 232.861,398.728 235,401.5C 234.651,396.863 236.485,393.197 240.5,390.5C 236.169,410.629 231.003,430.629 225,450.5C 217.118,457.761 207.951,459.928 197.5,457C 124.009,424.159 82.842,367.659 74,287.5C 71.058,214.894 98.558,157.061 156.5,114C 161.738,110.734 167.405,109.734 173.5,111C 181.455,115.476 183.622,121.976 180,130.5C 173.843,137.153 168.676,144.487 164.5,152.5 Z"/></g>
<g><path style="opacity:1" fill="#4b5549" d="M 186.5,290.5 C 186.389,291.117 186.056,291.617 185.5,292C 182.854,292.497 180.187,292.664 177.5,292.5C 180.311,291.525 183.311,290.858 186.5,290.5 Z"/></g>
<g><path style="opacity:1" fill="#c7bd77" d="M 215.5,284.5 C 213.628,287.582 211.295,290.249 208.5,292.5C 208.5,288.167 208.5,283.833 208.5,279.5C 210.833,279.5 213.167,279.5 215.5,279.5C 215.5,281.167 215.5,282.833 215.5,284.5 Z"/></g>
<g><path style="opacity:1" fill="#e0efb7" d="M 178.5,100.5 C 177.646,103.161 178.312,105.494 180.5,107.5C 181.669,113.604 185.336,116.271 191.5,115.5C 188.287,115.19 185.287,115.523 182.5,116.5C 180.5,113.833 178.167,111.5 175.5,109.5C 175.405,107.214 174.738,105.214 173.5,103.5C 174.899,102.11 176.566,101.11 178.5,100.5 Z"/></g>
<g><path style="opacity:1" fill="#fafbb2" d="M 200.5,94.5 C 200.222,102.17 199.889,109.836 199.5,117.5C 197.214,117.405 195.214,116.738 193.5,115.5C 195.565,110.788 196.898,105.788 197.5,100.5C 198.038,98.8828 198.371,97.2161 198.5,95.5C 199.167,95.1667 199.833,94.8333 200.5,94.5 Z"/></g>
<g><path style="opacity:1" fill="#86ccdc" d="M 173.5,103.5 C 174.738,105.214 175.405,107.214 175.5,109.5C 171.881,108.82 168.214,108.32 164.5,108C 167.411,106.239 170.411,104.739 173.5,103.5 Z"/></g>
<g><path style="opacity:1" fill="#5dc7f1" d="M 251.5,79.5 C 252.833,79.5 254.167,79.5 255.5,79.5C 271.18,79.3708 286.847,79.7041 302.5,80.5C 328.431,84.6432 352.431,93.8098 374.5,108C 371.854,108.497 369.187,108.664 366.5,108.5C 366.53,107.503 366.03,106.836 365,106.5C 361.569,108.261 358.403,110.428 355.5,113C 350.205,114.158 344.872,114.991 339.5,115.5C 339.414,114.504 339.748,113.671 340.5,113C 338.593,109.214 336.76,105.38 335,101.5C 329.859,97.0246 324.359,93.1913 318.5,90C 298.121,83.4922 277.121,80.4922 255.5,81C 253.942,80.79 252.609,80.29 251.5,79.5 Z"/></g>
<g><path style="opacity:1" fill="#a2dff5" d="M 198.5,95.5 C 198.371,97.2161 198.038,98.8828 197.5,100.5C 191.715,102.56 186.048,104.893 180.5,107.5C 178.312,105.494 177.646,103.161 178.5,100.5C 182.416,97.7105 186.749,95.7105 191.5,94.5C 193.821,94.7711 195.821,94.1045 197.5,92.5C 198.386,93.325 198.719,94.325 198.5,95.5 Z"/></g>
<g><path style="opacity:1" fill="#bde5f6" d="M 237.5,89.5 C 238.6,92.0161 240.267,93.0161 242.5,92.5C 243.897,94.9326 245.397,97.2659 247,99.5C 247.308,98.6919 247.808,98.0253 248.5,97.5C 250.44,99.0454 251.606,101.045 252,103.5C 252.333,103.167 252.667,102.833 253,102.5C 253.907,105.389 255.74,107.556 258.5,109C 257.376,109.249 256.376,109.749 255.5,110.5C 256.262,110.911 257.262,111.077 258.5,111C 257.549,111.718 257.383,112.551 258,113.5C 259.011,112.663 260.178,112.33 261.5,112.5C 261.36,114.124 262.027,115.29 263.5,116C 263.167,116.333 262.833,116.667 262.5,117C 263.563,118.188 264.897,118.688 266.5,118.5C 250.116,125.686 233.449,132.352 216.5,138.5C 215.439,135.378 214.105,132.378 212.5,129.5C 220.347,115.794 228.68,102.461 237.5,89.5 Z"/></g>
<g><path style="opacity:1" fill="#c1e6f6" d="M 227.5,95.5 C 220.167,104.167 212.833,112.833 205.5,121.5C 203.205,120.525 201.205,119.192 199.5,117.5C 199.889,109.836 200.222,102.17 200.5,94.5C 200.833,94.5 201.167,94.5 201.5,94.5C 202.152,95.7251 203.319,96.3917 205,96.5C 210.356,95.6287 215.69,94.6287 221,93.5C 223.226,94.0329 225.393,94.6996 227.5,95.5 Z"/></g>
<g><path style="opacity:1" fill="#7acef1" d="M 251.5,79.5 C 252.609,80.29 253.942,80.79 255.5,81C 277.121,80.4922 298.121,83.4922 318.5,90C 324.359,93.1913 329.859,97.0246 335,101.5C 336.76,105.38 338.593,109.214 340.5,113C 339.748,113.671 339.414,114.504 339.5,115.5C 334.131,116.298 329.464,118.631 325.5,122.5C 322.802,114.242 319.802,106.075 316.5,98C 314.58,95.0365 311.914,93.0365 308.5,92C 303.478,90.0501 298.478,88.2168 293.5,86.5C 288.625,87.1595 283.958,86.3261 279.5,84C 266.66,83.8309 253.993,83.3309 241.5,82.5C 241.5,82.1667 241.5,81.8333 241.5,81.5C 244.656,80.5661 247.989,79.8994 251.5,79.5 Z"/></g>
<g><path style="opacity:1" fill="#7bcec1" d="M 216.5,85.5 C 211.784,87.7387 206.784,89.4054 201.5,90.5C 201.5,91.8333 201.5,93.1667 201.5,94.5C 201.167,94.5 200.833,94.5 200.5,94.5C 199.833,94.8333 199.167,95.1667 198.5,95.5C 198.719,94.325 198.386,93.325 197.5,92.5C 195.821,94.1045 193.821,94.7711 191.5,94.5C 199.254,90.1356 207.587,87.1356 216.5,85.5 Z"/></g>
<g><path style="opacity:1" fill="#9fdff6" d="M 238.5,81.5 C 235.324,86.4994 231.658,91.1661 227.5,95.5C 225.393,94.6996 223.226,94.0329 221,93.5C 215.69,94.6287 210.356,95.6287 205,96.5C 203.319,96.3917 202.152,95.7251 201.5,94.5C 201.5,93.1667 201.5,91.8333 201.5,90.5C 206.784,89.4054 211.784,87.7387 216.5,85.5C 219.152,85.5905 221.485,84.9238 223.5,83.5C 225.265,82.5386 227.265,82.2053 229.5,82.5C 232.518,82.2962 235.518,81.9629 238.5,81.5 Z"/></g>
<g><path style="opacity:1" fill="#48b680" d="M 223.5,83.5 C 221.485,84.9238 219.152,85.5905 216.5,85.5C 218.515,84.0762 220.848,83.4095 223.5,83.5 Z"/></g>
<g><path style="opacity:1" fill="#44b699" d="M 255.5,79.5 C 264.652,78.5064 273.985,78.1731 283.5,78.5C 290.037,78.5862 296.37,79.2528 302.5,80.5C 286.847,79.7041 271.18,79.3708 255.5,79.5 Z"/></g>
<g><path style="opacity:1" fill="#348e4f" d="M 283.5,78.5 C 273.985,78.1731 264.652,78.5064 255.5,79.5C 254.167,79.5 252.833,79.5 251.5,79.5C 247.989,79.8994 244.656,80.5661 241.5,81.5C 240.5,81.5 239.5,81.5 238.5,81.5C 235.518,81.9629 232.518,82.2962 229.5,82.5C 247.242,77.7085 265.242,76.3752 283.5,78.5 Z"/></g>
<g><path style="opacity:1" fill="#e1f3e2" d="M 198.5,67.5 C 200.048,67.8212 200.715,68.8212 200.5,70.5C 198.173,70.6646 196.007,71.3313 194,72.5C 193.517,71.552 193.351,70.552 193.5,69.5C 195.553,69.5979 197.22,68.9313 198.5,67.5 Z"/></g>
<g><path style="opacity:1" fill="#edf8ed" d="M 171.5,66.5 C 179.486,65.998 181.486,69.1647 177.5,76C 180.952,76.8917 183.952,78.5584 186.5,81C 185.975,81.6924 185.308,82.1924 184.5,82.5C 181.555,80.4436 178.388,78.777 175,77.5C 173.274,77.9459 171.774,78.7792 170.5,80C 171.399,82.1917 172.399,84.3584 173.5,86.5C 173.192,87.3081 172.692,87.9747 172,88.5C 169.167,82.8333 166.333,77.1667 163.5,71.5C 166.231,69.8084 168.898,68.1417 171.5,66.5 Z"/></g>
<g><path style="opacity:1" fill="#32ab33" d="M 172.5,68.5 C 176.677,67.8416 178.177,69.5082 177,73.5C 174.3,75.2687 171.466,76.602 168.5,77.5C 168.528,75.4176 167.861,73.5843 166.5,72C 168.727,71.059 170.727,69.8923 172.5,68.5 Z"/></g>
<g><path style="opacity:1" fill="#ecf7ec" d="M 358.5,64.5 C 359.822,64.33 360.989,64.6634 362,65.5C 362.785,70.8759 363.785,76.2092 365,81.5C 366.912,77.3403 369.079,73.3403 371.5,69.5C 371.833,70 372.167,70.5 372.5,71C 370.459,76.8537 367.792,82.3537 364.5,87.5C 363.914,87.2907 363.414,86.9574 363,86.5C 361.871,80.5211 360.871,74.5211 360,68.5C 358.016,72.4689 356.016,76.4689 354,80.5C 353.107,81.7112 352.274,81.7112 351.5,80.5C 354.228,75.308 356.561,69.9747 358.5,64.5 Z"/></g>
<g><path style="opacity:1" fill="#e9f6e9" d="M 183.5,61.5 C 184.376,61.3691 185.043,61.7025 185.5,62.5C 187.833,67.8333 190.167,73.1667 192.5,78.5C 192,78.8333 191.5,79.1667 191,79.5C 187.143,74.1133 184.643,68.1133 183.5,61.5 Z"/></g>
<g><path style="opacity:1" fill="#eaf7ea" d="M 204.5,54.5 C 205.873,54.3433 207.207,54.51 208.5,55C 212.12,60.2886 216.12,65.2886 220.5,70C 217.756,70.628 215.756,69.628 214.5,67C 208.063,65.5164 204.73,68.0164 204.5,74.5C 203.451,67.8424 203.451,61.1757 204.5,54.5 Z"/></g>
<g><path style="opacity:1" fill="#ebf7eb" d="M 340.5,56.5 C 341.478,56.811 342.145,57.4777 342.5,58.5C 341.039,60.8109 340.706,63.1442 341.5,65.5C 344.399,66.6416 347.399,67.3083 350.5,67.5C 350.833,65.5 351.167,63.5 351.5,61.5C 352.675,61.281 353.675,61.6143 354.5,62.5C 352.425,68.3109 350.092,73.9776 347.5,79.5C 347.167,78.8333 346.833,78.1667 346.5,77.5C 347.351,75.1465 347.851,72.8132 348,70.5C 345.057,68.7774 341.89,67.7774 338.5,67.5C 338.287,70.475 337.287,73.1416 335.5,75.5C 335.167,74.8333 334.833,74.1667 334.5,73.5C 336.235,67.706 338.235,62.0394 340.5,56.5 Z"/></g>
<g><path style="opacity:1" fill="#31ab33" d="M 206.5,56.5 C 208.636,58.8123 210.636,61.3123 212.5,64C 210.564,64.813 208.564,65.313 206.5,65.5C 206.5,62.5 206.5,59.5 206.5,56.5 Z"/></g>
<g><path style="opacity:1" fill="#edf8ed" d="M 225.5,48.5 C 235.202,49.3702 238.869,54.5369 236.5,64C 240.731,67.2715 240.231,68.1048 235,66.5C 222.735,70.9125 217.735,66.5792 220,53.5C 221.73,51.5981 223.563,49.9314 225.5,48.5 Z"/></g>
<g><path style="opacity:1" fill="#e8f6e8" d="M 322.5,52.5 C 327.603,51.7176 331.269,53.551 333.5,58C 333.167,58.5 332.833,59 332.5,59.5C 329.734,54.2482 325.9,53.2482 321,56.5C 319.595,60.0721 319.262,63.7387 320,67.5C 323.741,70.2962 327.241,69.9629 330.5,66.5C 331.308,66.8076 331.975,67.3076 332.5,68C 327.819,73.7401 322.986,73.9068 318,68.5C 315.171,61.8334 316.671,56.5001 322.5,52.5 Z"/></g>
<g><path style="opacity:1" fill="#26a82a" d="M 224.5,51.5 C 233.162,50.8395 236.496,54.8395 234.5,63.5C 232.712,63.2148 231.045,63.5481 229.5,64.5C 230.804,66.0157 230.304,66.6824 228,66.5C 223.43,65.3628 221.263,62.3628 221.5,57.5C 221.628,55.0452 222.628,53.0452 224.5,51.5 Z"/></g>
<g><path style="opacity:1" fill="#eef8ee" d="M 300.5,47.5 C 305.2,48.2839 309.866,49.2839 314.5,50.5C 310.535,51.3671 306.535,51.3671 302.5,50.5C 302.5,52.5 302.5,54.5 302.5,56.5C 305.914,56.7358 309.247,57.4025 312.5,58.5C 308.904,59.0791 305.238,59.0791 301.5,58.5C 301.5,60.8333 301.5,63.1667 301.5,65.5C 305.394,65.1098 309.06,65.7765 312.5,67.5C 311.667,67.8333 310.833,68.1667 310,68.5C 306.163,67.7773 302.33,67.1106 298.5,66.5C 299.058,60.1545 299.724,53.8211 300.5,47.5 Z"/></g>
<g><path style="opacity:1" fill="#e6f5e7" d="M 282.5,45.5 C 287.453,46.3292 292.453,46.6625 297.5,46.5C 297.5,47.5 297.5,48.5 297.5,49.5C 295.139,49.3259 292.806,48.9926 290.5,48.5C 290.95,54.3343 290.283,60.001 288.5,65.5C 287.443,59.8433 287.443,54.1766 288.5,48.5C 286.5,48.5 284.5,48.5 282.5,48.5C 282.5,47.5 282.5,46.5 282.5,45.5 Z"/></g>
<g><path style="opacity:1" fill="#e8f5e8" d="M 253.5,45.5 C 254.649,45.7911 255.316,46.6244 255.5,48C 256.513,52.4713 256.679,56.9713 256,61.5C 255.5,63.3333 254.333,64.5 252.5,65C 249.007,66.0037 245.841,65.5037 243,63.5C 241.039,58.3611 240.206,53.0277 240.5,47.5C 241.5,47.5 242.5,47.5 243.5,47.5C 243.25,52.5805 243.75,57.5805 245,62.5C 247.064,63.5914 249.231,63.7581 251.5,63C 253.425,57.4642 254.092,51.6309 253.5,45.5 Z"/></g>
<g><path style="opacity:1" fill="#ecf7ec" d="M 265.5,45.5 C 266.822,45.33 267.989,45.6634 269,46.5C 271.5,52.1667 274,57.8333 276.5,63.5C 276,63.8333 275.5,64.1667 275,64.5C 273.351,63.2139 272.185,61.5473 271.5,59.5C 268.894,58.3483 266.227,58.1816 263.5,59C 262.74,60.4411 262.074,61.9411 261.5,63.5C 260.635,64.5827 259.635,64.7494 258.5,64C 261.131,57.9382 263.465,51.7716 265.5,45.5 Z"/></g>
<g><path style="opacity:1" fill="#30ab33" d="M 266.5,48.5 C 268.201,50.7315 269.534,53.2315 270.5,56C 268.527,56.4955 266.527,56.6621 264.5,56.5C 264.963,53.779 265.629,51.1123 266.5,48.5 Z"/></g>
<g><path style="opacity:1" fill="#2c982d" d="M 265.5,489.5 C 269.503,490.319 271.17,492.819 270.5,497C 270.9,500.698 269.567,503.531 266.5,505.5C 263.583,503.666 262.25,501 262.5,497.5C 262.4,494.376 263.4,491.71 265.5,489.5 Z"/></g>
<g><path style="opacity:1" fill="#edf6ed" d="M 239.5,485.5 C 246.87,484.395 250.037,487.395 249,494.5C 246.603,497.4 243.77,499.733 240.5,501.5C 243.399,502.238 246.065,502.238 248.5,501.5C 247.948,503.333 247.115,505 246,506.5C 242.356,504.979 238.523,504.145 234.5,504C 233.289,503.107 233.289,502.274 234.5,501.5C 238.77,499.449 242.603,496.783 246,493.5C 247.24,490.094 246.073,488.427 242.5,488.5C 239.488,488.179 238.155,489.512 238.5,492.5C 237.5,492.5 236.5,492.5 235.5,492.5C 235.961,489.697 237.295,487.363 239.5,485.5 Z"/></g>
<g><path style="opacity:1" fill="#1e9022" d="M 295.5,487.5 C 297.411,487.574 298.578,488.574 299,490.5C 299.476,496.278 300.143,501.945 301,507.5C 298.422,508.141 295.755,508.475 293,508.5C 290.071,508.475 287.571,507.809 285.5,506.5C 289.785,505.705 294.119,505.372 298.5,505.5C 298.799,503.396 298.466,501.396 297.5,499.5C 295.912,502.257 293.579,503.09 290.5,502C 296.05,498.418 297.717,493.585 295.5,487.5 Z"/></g>
</svg>
